/* XPM */
static char *_ffd3829629444b3eb7477b33a9b8849AyL0Cy7prBVO2nw2[] = {
/* columns rows colors chars-per-pixel */
"96 64 7 1 ",
"  c None",
". c black",
"X c #101E0F",
"o c #1F461C",
"O c #21721A",
"+ c #4EA846",
"@ c #FBFBFB",
/* pixels */
"                                                                                                ",
"                                                                                                ",
"     O++++++                                                                                    ",
"   OOOOOOOOO++++     O++++++                                                                    ",
"   OOOO@@OOOOOOO   OOOOOOOOO++++                                                                ",
"   OOOO..OOOOOOO   OOOO@@OOOOOOO                                                                ",
"   OOOOOOOOXOOOO   OOOO..OOOOOOO                                                                ",
"   OOOOOOOOOXXXX   OOOOOOOOXOOOO                                                                ",
"    OOooOOOOOOO    OOOOOOOOOXXXX                                                                ",
"     OOOooo         OOooOOOOOOO                                                                 ",
"   +++OOOOOO         OOOooo                                                                     ",
"   OOO+OOOOO       ++O+OOOOO                                                                    ",
"     +O+OOO        OO+O+OOOO                                                                    ",
"     +OOOOO          +OOOOO                                                                     ",
"     ++  OO          ++  OO                                                                     ",
"     ++  OO          ++  OO                                                                     ",
"                                                                                                ",
"                                    O+++++++                                         O++++++    ",
"     O++++++         O++++++        OOOOOOOO++++     O++++++         O++++++       OOOOOOOOO++++",
"   OOOOOOOOO++++   OOOOOOOOO++++   OOOO@@OOOOOOO   OOOOOOOOO++++   OOOOOOOOO++++   OOOO@@OOOOOOO",
"   OOOO@@OOOOOOO   OOOO@@OOOOOOO   OOOO..OOOOOOO   OOOO@@OOOOOOO   OOOO@@OOOOOOO   OOOO..OOOOOOO",
"   OOOO..OOOOOOO   OOOO..OOOOOOO   OOOOOOOOXOOOO   OOOO..OOOOOOO   OOOO..OOOOOOO   OOOOOOOOXOOOO",
"   OOOOOOOOXOOOO   OOOOOOOOXOOOO   OOOOOOOOOXXXX   OOOOOOOOXOOOO   OOOOOOOOXOOOO   OOOOOOOOOXXXX",
"   OOOOOOOOOXXXX   OOOOOOOOOXXXX    OOOOOOOOOOOO   OOOOOOOOOXXXX   OOOOOOOOOXXXX    OOooOOOOOOO ",
"    OOooOOOOOOO     OOooOOOOOOO      OooOOO         OOooOOOOOOO     OOooOOOOOOO      OOOooo     ",
"     OOOooo          OOOooo          OOOooo          OOOooo          OOOooo          OOOOOO     ",
"     +OOOOO          +OOOOO          +OOOOO          +OOOOO          +OOOOO         O+OOOOOO    ",
"    OO+OOOOO        OO+OOOOO        OO+OOOOO       OOO+OOOO         OO+OOOOO        OO+OOOOO    ",
"    O+O+OOO         OOO+OOO         OOO+OOO        OO+O+OOO        OO+O+OOOO        O+O+OOO     ",
"     +OOOOO          +++OOO          +++OOO          +OOOOO        O +OOOOO          +OOOOO     ",
"     ++  OO           ++ OO            ++O            OO++            OO++            ++OO      ",
"     ++  OO              OO            OOO            OO++              ++            ++        ",
"                                                                                                ",
"    OO++++++        OO++++++                                                                    ",
"    OOOOOOOO        OOOOOOOO                                                                    ",
"   OOOOOOOOO++++   OOOOOOOOO++++                                                                ",
"   OOOO@@OOOOOOO   OOOO@@OOOOOOO                                                                ",
"   OOOO..OOOOOOO   OOOO..OOOOOOO                                                                ",
"   OOOOOOOOXOOOO   OOOOOOOOXOOOO                                                                ",
"   OOOOOOOOOXXXX   OOOOOOOOOXXXX                                                                ",
"    OOooOOOOOOO     OOooOOOOOOO                                                                 ",
"     OOOooo          OOOooo                                                                     ",
"     +OOOOO          +OOOOO                                                                     ",
"    OO+OOOOO       OOO+OOOOO                                                                    ",
"   OO+O+OOOO        O+O+OOO                                                                     ",
"     +OOOOO          +OOOOO                                                                     ",
"     ++  OO          ++  OO                                                                     ",
"    O+  OO            ++  OO                                                                    ",
"                                                                                                ",
"                                                                                                ",
"                                                                                                ",
"    O++++++                                                                                     ",
"  OOOOOOOOO++++                                                                                 ",
"  OOOO@@OOOOOOO     O++++++                                                                     ",
"  OOOO..OOOOOOO   OOOOOOOOO++++                                                                 ",
"  OOOOOOOOOOOOO   OOOOOOOOOOOOO                                                                 ",
"  OOOOOOOOXXXXX   OOOO..OOOOOOO                                                                 ",
"   OOooOOOOOOO    OOOOOOOOOOOOO                                                                 ",
"     +OOOOO       OOOOOOOOXXXXX                                                                 ",
"    OO+OOOOO       OOooOOOOOOO                                                                  ",
"    O+O+OOO        OOOO+OOO                                                                     ",
"     +OOOOO          OOOOOO                                                                     ",
"     ++  OOO        OOOOOOOOO                                                                   ",
"     +++ OOO       OO+OOOOOOO                                                                   "
};
