/* XPM */
static char *_2c06a4f96914581c4b8919769887a92EFAlWKQFOh9L1O6Z[] = {
/* columns rows colors chars-per-pixel */
"32 32 10 1 ",
"  c None",
". c black",
"X c #5B4115",
"o c #715018",
"O c #8E132E",
"+ c #865E1B",
"@ c #A32843",
"# c #D5EB0A",
"$ c #CBD669",
"% c #F8F6F2",
/* pixels */
"              XXXXXX            ",
"            XXX+++oXX           ",
"           XXo+++++oXX          ",
"           X+%%++o%%oXX         ",
"          XX+%.++o.%ooX         ",
"          Xo++++ooooooX         ",
"          Xo+++oo++oooX         ",
"          Xo%%+ooo+%%oX         ",
"   XXXXX  XX+%%ooo%%oXX         ",
"  XXo++XX  XXo%%%%%ooX  XXXXX   ",
"  Xooo+o%X  Xooo+oooXX XX++++X  ",
"  XXoo%%%XXXXo+o+oooXXX%++oo+X  ",
"  XXX%%+++++oo+++oooo++%%%oooX  ",
"   X%XXoo++++o++o+oo++++%%oXXX  ",
"    XXXXoooo+o@@@oooooooo%%XX   ",
"     XXXXXo++@@OOOoooooXXXXX    ",
"       XXXo++@OOOOoooXXXXX      ",
"       XXXXoo%OOO%oooXXXX       ",
"        XXX++o%%%ooooXXX        ",
"        XX+++o+++ooooXXX        ",
"        Xoo++o$$$ooooXXX        ",
"        Xoo++$$###+++oXX        ",
"        Xo+++$####+o++oX        ",
"       XXo++o%###%oo+++XXX      ",
"     XXXo+oooo%%%+oo+++++XXX    ",
"   XX%ooo+oooXXXXoooo+++++o%XXX ",
" XXX+%%++ooooXXXXXXoXooo+%%%+oXX",
"XXo+++%+ooXXXXXXXXXXXoo%%%o++++X",
"Xoo+oo%%%%XXXXX  XXXXX%%ooooooXX",
"XooooXXoX%XXXXX   XX%%%ooooooXX ",
"XXooXXXXXX%%XX     X%XXXXXXXXX  ",
" XXXXXXXXXXX        XXXXXXX     "
};
