/* XPM */
static char *ed6c9f6030e34f13bd076282a9452292ZUou9vMTE6XFeBYs[] = {
/* columns rows colors chars-per-pixel */
"64 64 29 1 ",
"  c None",
". c #0E0E15",
"X c #3B1725",
"o c #11213C",
"O c #242234",
"+ c #592237",
"@ c #11571A",
"# c #35324C",
"$ c #37344F",
"% c #045943",
"& c #26477F",
"* c #B4202A",
"= c #DF3E23",
"- c #FA6A0A",
"; c #1D902C",
": c #1E9B2E",
"> c #078060",
", c #F9A31B",
"< c #3A6D87",
"1 c #747682",
"2 c #476EB2",
"3 c #527CC6",
"4 c #5A89DA",
"5 c #79AAFF",
"6 c #98BDFF",
"7 c #D0D2EA",
"8 c #EEEEEE",
"9 c #E3E6FF",
"0 c white",
/* pixels */
"                                                                ",
"                                                                ",
"                              ...........                       ",
"                         .....0000000=,00.....                  ",
"                       ..000008888888=-8804444..                ",
"                     ..>88%8889999999,=9OO333344..              ",
"                    .>>%%%@%99%9999O9=-O&&&&&&3344.             ",
"                   .>,-=-@@@%%@%%%O&=-&&&&&&&&&&334.            ",
"                  .-=-,%%-@@&@@@&&&&&=&&&&&&&&&&&&34.           ",
"                 .>%%%%%%%-&&&&&&&&&---&&&&&&&&&&&&34.          ",
"                .>%%%%o%%-o-&&&&&&&-=&,-=-555&5&&&&&35.         ",
"               .>%%%%%oo-ooo-&&&&&-&&&2,@2-2@@25&5&&&35.        ",
"              .>%%%%%%,-,oooo-&&&&=&&2@@@@,-@@@2525&&&35.       ",
"             .,%%%%%%%-ooooooo=,&&-11@@@@@@*-@@22225&&&35.      ",
"             .>,-%%%%-,ooooo1-*-&-,211@@@@@@,-222225&&&&36.     ",
"            .+XX=-,=-%ooooo1-*=,-111111@@@@@@=-222225&&&36.     ",
"            .+XX,*X%%=oo1o1,1111*-111111@@@@@@,-22@@25&&&36.    ",
"           .+XXX-*X%%o-11-,1111111-,111@@@@@@@2-@@@@@25&&36.    ",
"          .+XXX-*XX1%11=-1111-1111*--1@@@@-*@@@@-@@@22&&&&36.   ",
"          .+XXX=,XX11111-=1111111-11*-*@@@@-@@@@=-,@@25&&&36.   ",
"         .+XXXX-*XX1111-*1-11111-11111,-@@@@@@@@@=-@22&&&&&80.  ",
"         .+XXXX,*XXX11-,111=111-1111111@-@@@@@@@@@-@225&&7780.  ",
"         .+XXXX-,XX11-*11111-11-11-*11@@,-@@@@@@@,-2225&77780.  ",
"        .+XXXX-*XXX1-*111111-1-1111-1%@@-@-2@@@@@-2227&7777780. ",
"        .+XXX---,,*,,,*,11111=1%11OO<22-222-22@@-,-27777777780. ",
"        .-,--X          ,,11-,-=-Ooooo2-222,-@--@@@-*,-*-77*,=. ",
"        .#$-  ----*111    *,*11oo=-ooo-*2222-,@@@@@@77=,=7,---. ",
"        .#O -*$*,*-,,111    ,111ooo-*-,o2222-22@@@@777777*=780. ",
"        . *-OOO$X11--1111-   -##ooo-=oooo2222-2@@@@@7777777780. ",
"        .-,OOOOO$11-,-O1-*1   ,##o-oo-oooo2o22--2@@@&777777780. ",
"        #-*OOOOOO$-#o*--*o##   ,--*ooo=ooooo2o,-2&@&7777777780. ",
"       #O*-OOOOOX,oooo=*,o###  *###oooo-ooooo-oo-&&7777777O7;:. ",
"      .#O*-OOOOO-XX#oooo*-o##*  ,#1ooooo-o*--*ooo,7777777O&O3:. ",
"      .#OO*-OOO-XXX##oooo=--#-   ,O#oo--=*-*,ooooo-77777O&&&3:. ",
"      .#OO,-O-,-*,*,Oooo,*==-##  *#---*,*-1oooooooo,7-7O&&&35.  ",
"      . #O*,-   ,-=-*-o,*-oo,-#1  ,*,*ooo-11oooooooO-OO&&&&35.  ",
"             ,*,--,=--*-o#ooo,-O  ,#ooooo=*1ooooooo-O-&&&&&35.  ",
"       . *,OO---,,*,*,-oo##ooO,=- *####o1--1ooooo--ooo-&&&35.   ",
"       .--,--*O$$#-*-=,-oo##oo##=  ,##11-*=11ooo-*oooo,-&&35.   ",
"       #OOOOO-*OO$$,--=-,#######=  *11--*11-*,*-oooooooo-&35.   ",
"       #OOOO-*OOOO*o*--,-,######,= ,1-**1111=--*oooooooo-35.    ",
"      .#OOO-,X##OO-Oo=--*-o---11#- ,-*111111*oooooooooo-*35.    ",
"      .#OO**XXX#-*-ooo=*,,-,**---=  ,1111111*1ooooo*-,-*3*.     ",
"       .#--##XX-,-XXX11-,--*11111-  ,1111111-1oooo*-oooo4.      ",
"            XX-*-XXX1111-,-*11111=* -***,***=Oooo*-oooo4.       ",
"                XXXXX111-*, 11111-1 ,-------*=o**-ooooo4.       ",
"                 XXXXXX1-,  11111-* ,*,***,*o-*--oooo4..        ",
"       * OO       XXXX11-*  *1111*- ,$$$o$$ooO-ooOoo4.          ",
"      * OOO* X    XX-XX1-*  -*11$*- *OOOOOOOO-=OOOO#.           ",
"   .   *. *OO--    -X-----  X-*,*-* ,OOOOOO--**-O##.            ",
"   *  ... OOO-X*   XXXXX-1  XX----O ,OOOO--**OO=#..             ",
"   .**  .. ***X    $XXX$-,  $$OOOO- *----**OOO#..               ",
"         ..,*O*    ---$O-*  OOOOOO- ,****#####.                 ",
"        .**..*O *   O$-O-, O---OOO- -####.....                  ",
"           .**OO*   OOO--  #OOO-OO- .....                       ",
"         *.*..OO*   #OOO-  .####-#                              ",
"           ..O.O    .###    ......                              ",
"             ..      ....                                       ",
"            O                                                   ",
"                                                                ",
"                                                                ",
"                                                                ",
"                                                                ",
"                                                                "
};
