/* XPM */
static char *c2c39baade9a4138cd2791ee1e46baa9d2S74TlNDguq1vkf[] = {
/* columns rows colors chars-per-pixel */
"64 64 9 1 ",
"  c None",
". c #21233B",
"X c #3B3E69",
"o c #4F5277",
"O c #585A74",
"+ c #656896",
"@ c #7C7EA1",
"# c #A0AABA",
"$ c #D4D7DD",
/* pixels */
"                                                                ",
"                                                                ",
"                                                                ",
"                                                                ",
"                                                                ",
"                                                                ",
"                                                                ",
"                                                                ",
"                                                                ",
"                                                                ",
"                                                                ",
"                                                                ",
"                                                                ",
"                                                                ",
"                                                                ",
"               OOOO   OOO                                       ",
"              O+oo@OOO$$$O                                      ",
"               O+oo@@###$O                                      ",
"               O+ooo@@@#$O                                      ",
"                OOo@@@#$O                                       ",
"                  OOOOOO                                        ",
"                             OOOOOOOO                           ",
"                            O$$$$$$$$O                          ",
"           OOOOOOO         O$########$O                         ",
"          O$$$$$$$OOOO  OOO$##########$O                        ",
"         O@#######$$$$OO$$$############$O                       ",
"         Oo@##########$$################$O                      ",
"         Ooo@######################$####$O                      ",
"         O.oo@##################@@##$####$O                     ",
"         O.ooo@@##########################$O                    ",
"          O.oo@#######@####################$O                   ",
"          O..oo@#@####@#####################$O                  ",
"          O..ooo@@#@#@#######################$O                 ",
"           O..ooo@@@@@@############$##########$O                ",
"           O...oo@o@@@@@#@#########$##########$O                ",
"           O....oooo@@@@@@##########$#########$O                ",
"           O.....o.ooo@@@@@#@#######$##@@######$O               ",
"            O......ooooo@@@@@##@###############$O               ",
"             O.......oooo@@@@@@###############$O                ",
"              O.......oooo@@o@@@##############$O                ",
"               OOOO....o.ooooo@@@@#@#########$O                 ",
"                   O.....oooooo@@@@@########$O                  ",
"                    O.....ooooooo@@@@#@####$O                   ",
"                    O......oooooooo@o@@###$O                    ",
"                    O........ooooooooo@@@OO                     ",
"                    O.........oo.oooooOOO                       ",
"                    OX............OOOO                          ",
"                     OX.........XO                   OOO        ",
"                      OX.......XO                OOOO$$$O       ",
"                       OXX...XXO                Oo@@@##$O       ",
"                        OOXXXOO                Ooo@@#@#$O       ",
"                          OOO                 O+o@@####O        ",
"                                               O+o@@@#O         ",
"                                                OO@@@O          ",
"                                                  OOO           ",
"                                                                ",
"                                                                ",
"                                                                ",
"                                                                ",
"                                                                ",
"                                                                ",
"                                                                ",
"                                                                ",
"                                                                "
};
