/* XPM */
static char * exit_xpm[] = {
"52 52 220 2",
"  	c #F2EDF1",
". 	c #EEECF0",
"+ 	c #EEEBF0",
"@ 	c #E9EAEF",
"# 	c #F3EEF2",
"$ 	c #C7BBB5",
"% 	c #957B49",
"& 	c #8F7143",
"* 	c #9A8353",
"= 	c #957A4B",
"- 	c #8E7041",
"; 	c #8D6E40",
"> 	c #8F7243",
", 	c #99824F",
"' 	c #CCC2B9",
") 	c #F1EDF1",
"! 	c #EBEAF0",
"~ 	c #DDE5ED",
"{ 	c #F3EEF1",
"] 	c #E6E8EF",
"^ 	c #E2E7EE",
"/ 	c #CEE0EB",
"( 	c #D8E4ED",
"_ 	c #C8DEEA",
": 	c #CABEB7",
"< 	c #907442",
"[ 	c #8C6E40",
"} 	c #8C6D3F",
"| 	c #8E7143",
"1 	c #9A8252",
"2 	c #9D8756",
"3 	c #8F7344",
"4 	c #9D8857",
"5 	c #8C6D3B",
"6 	c #EDEBF0",
"7 	c #C7DEEA",
"8 	c #D9E4ED",
"9 	c #D4E2EC",
"0 	c #C6DDEA",
"a 	c #CCDFEB",
"b 	c #EAEAF0",
"c 	c #F3EDF1",
"d 	c #E1E7EE",
"e 	c #D3E2EC",
"f 	c #CEC3B9",
"g 	c #9C8652",
"h 	c #967D4D",
"i 	c #8F7244",
"j 	c #7A523E",
"k 	c #8E7142",
"l 	c #977E4C",
"m 	c #D2E1EC",
"n 	c #D2E2EC",
"o 	c #F0ECF1",
"p 	c #E3E7EE",
"q 	c #E3E8EF",
"r 	c #A7B4B2",
"s 	c #7D3946",
"t 	c #8F6345",
"u 	c #CDC3B9",
"v 	c #8A3E4C",
"w 	c #843C49",
"x 	c #8F6F80",
"y 	c #6E5965",
"z 	c #EFECF0",
"A 	c #DFE6EE",
"B 	c #E5E8EF",
"C 	c #923F4A",
"D 	c #C3DAEA",
"E 	c #90C7E5",
"F 	c #91C8E5",
"G 	c #91C7E5",
"H 	c #B2D3E8",
"I 	c #E0E7EE",
"J 	c #BED8EA",
"K 	c #B8D5E9",
"L 	c #83BEE6",
"M 	c #9CC8E7",
"N 	c #E2E8EE",
"O 	c #883C3F",
"P 	c #96463D",
"Q 	c #7A8CAB",
"R 	c #7C8EAC",
"S 	c #84A6C5",
"T 	c #83BFE7",
"U 	c #83BFE6",
"V 	c #84ACCD",
"W 	c #8496AF",
"X 	c #8497AF",
"Y 	c #7DA4C7",
"Z 	c #828089",
"` 	c #827F89",
" .	c #8A898D",
"..	c #909090",
"+.	c #8F8E8F",
"@.	c #7D90A8",
"#.	c #C2D4EC",
"$.	c #94433D",
"%.	c #8F3D3C",
"&.	c #8C7862",
"*.	c #8A8A8E",
"=.	c #8F8E90",
"-.	c #8A7A6C",
";.	c #9B824D",
">.	c #937643",
",.	c #8F703D",
"'.	c #958770",
").	c #909191",
"!.	c #85828A",
"~.	c #988050",
"{.	c #917546",
"].	c #9C8655",
"^.	c #9B8554",
"/.	c #8E734C",
"(.	c #CCC4BF",
"_.	c #843A42",
":.	c #9A4B3D",
"<.	c #907445",
"[.	c #94794A",
"}.	c #8D6F41",
"|.	c #9B8453",
"1.	c #9D8655",
"2.	c #907345",
"3.	c #947A4A",
"4.	c #998151",
"5.	c #8E713F",
"6.	c #C9BDB6",
"7.	c #927748",
"8.	c #9A8352",
"9.	c #957B4B",
"0.	c #917547",
"a.	c #93794A",
"b.	c #8C6C3E",
"c.	c #937849",
"d.	c #9C4E3D",
"e.	c #9C8554",
"f.	c #998252",
"g.	c #9E8857",
"h.	c #977E4E",
"i.	c #8D6F40",
"j.	c #947A4B",
"k.	c #8E7042",
"l.	c #997045",
"m.	c #9D8656",
"n.	c #A73B3B",
"o.	c #973535",
"p.	c #7F563F",
"q.	c #F55044",
"r.	c #C74646",
"s.	c #F5655B",
"t.	c #1E5541",
"u.	c #9C8552",
"v.	c #987F4D",
"w.	c #B54141",
"x.	c #20743E",
"y.	c #99814E",
"z.	c #8C6E3C",
"A.	c #CABFB7",
"B.	c #205E43",
"C.	c #C8BBB5",
"D.	c #1D693D",
"E.	c #BA793D",
"F.	c #873131",
"G.	c #EFECF1",
"H.	c #FFCB87",
"I.	c #FFAE45",
"J.	c #F5A249",
"K.	c #BEDBE9",
"L.	c #E4E8EF",
"M.	c #CADFEA",
"N.	c #EBBF9B",
"O.	c #C5DDEA",
"P.	c #FFB658",
"Q.	c #A36939",
"R.	c #6B453B",
"S.	c #895E42",
"T.	c #B8948C",
"U.	c #825940",
"V.	c #47464C",
"W.	c #C0DBE9",
"X.	c #A3847E",
"Y.	c #666670",
"Z.	c #E8E9EF",
"`.	c #B8D9E8",
" +	c #93939E",
".+	c #787882",
"++	c #D1A792",
"@+	c #545359",
"#+	c #28282C",
"$+	c #35353A",
"%+	c #303645",
"&+	c #3A4354",
"*+	c #664254",
"=+	c #7F5161",
"-+	c #6E4F39",
";+	c #8B6C48",
">+	c #D1E1EC",
",+	c #DAE4ED",
"'+	c #3C3C42",
")+	c #424F61",
"!+	c #945C6B",
"~+	c #A18152",
"{+	c #966350",
"]+	c #C98F59",
"^+	c #D49D6E",
"/+	c #A87053",
"(+	c #CBDFEB",
"_+	c #BBDAE8",
":+	c #B9D9E8",
"<+	c #CFE0EB",
"[+	c #ECEBF0",
"}+	c #CADFEB",
"|+	c #DCE5ED",
"1+	c #DBAB93",
"2+	c #F4EEF1",
"3+	c #DEE6EE",
"4+	c #734C3D",
"5+	c #C0DCE9",
"6+	c #D0E1EB",
"7+	c #E7E9EF",
"                            . +   @ # $ % & * = - & ; > > ; - , ' #                   ) !     @         ",
"        ~ { ] !             ^ / ( _ # : < [ } | 1 2 3 4 4 = [ 5 : #                   6 7 8 8 7 )       ",
"        9 0 a b             c d e ) # f g h } i j j j j 2 2 k l f #                     ! m n o         ",
"        ) p !                       q r s s s j t t t t j s s s u #                                     ",
"                                    s s v v w j t x y t j w v v s s )   z ! ! ! +         z ! ! ! .     ",
"A A A A A B c                   s s C v v v w j t y y t j w v v v C s s D E F G H I A A I J E G G K I A ",
"L L L L L M N               s s O s C v v v w j t t t t j w v v v C s P s s Q R S T L L U V W X Q Y U L ",
"Z `  ...+.@.#.{         s s $.%.O s C v v v w j t t t t j w v v v C s P P P s s &.*...=.Z -.;.>.,.'.).!.",
"~.{.].2 ^./.(.#     s s P _.$.%.O s C v s s s j t t t t j s s s v C s P P P :.s s s 2 ^.<.[.}.}.|.2 1.& ",
"2.k 3.].4.5.6.# s s P P P _.$.%.O O s s %.%.O j t t t t j O %.%.s s P P P P :.s O %.s 4.2.2.}.} 7.8.{.} ",
"2 8.& [.9.g s s _.:.P P P _.$.%._.s $.%.%.%.O j t t t t j O %.%.%.$._.P P P :.s O %.$._.s s 0.a.1 & [.}.",
"2 4 [.b.c.s %.O _.:.P P P P _._.P _.$.%.%.%.O j t t t t j O %.%.%.$._._._.P d.s O %.$._.w v s e.f.a.g.> ",
"].~.; h.s %.%.O _.:.P P _._.:.P P _.$.%.%.%.O j t x y t j O %.%.%.$._.P P _._.O O %.$._.w v v s 1 i.~.& ",
"}.i > }.s %.%.O O _._._.w _.:.P P _.$.%._._._.j t y y t j _._._.%.$._.P P P :._._.%.$._.w v v s * j.k.> ",
"> 4 4 = s %.%.O s C v v w _.:.P P P _._.P P P j t t t t j P P P _._.P P P P :._.P _._.w w v v s } | 1 2 ",
"> 4 2 2 s %.s s s C v v w _.:.P P _.:.P P P P j l.l.l.l.j P P P P :._.s s P :._.P P :.s s s v s } i * 2 ",
"; = 2 m.s s P P s C v v w _.:.P _._.:.n.n.P P o.o.p.p.o.o.P P P P :._.w v s s P P P :._.O %.s s } } & 2.",
"k.- }.s d.P P P s C v v w w _._.w _.n.q.r.n.o.s.s.n.n.s.q.o.t.t.P n.n.w v v C s P P :._.O %.%.$.s j.c.} ",
"u.v.5 s d.P P P s C v s s s C v w _.n.r.r.n.o.s.w.q.q.w.q.o.x.x.n.q.r.n.v v C s _.P :._.O %.%.$.s , y.z.",
"u u A.s d.P P P P s s %.O s C t.t._.t.n.n.x.o.q.q.r.r.q.q.o.x.B.n.r.r.n.t.v C s O _._.O O %.%.$.s A.: C.",
"# # # s d.P _._._.$.%.%.O s t.x.n.n.D.D.D.E.E.F.r.F.F.r.F.E.E.D.D.n.n.x.x.t.C s O %.$._._._.%.$.s # # # ",
".   G.) _._.%.O _.$.%.%.O t.B.n.q.r.n.B.E.H.I.F.r.F.F.r.F.J.J.E.B.D.D.n.n.B.t.O O n.n._.P P _._.        ",
"K.L.M.s $.%.%.O _.$.%.n.n.x.D.n.r.r.E.E.I.I.I.F.F.N.N.F.F.I.J.J.E.E.n.q.r.n.x.t.n.q.r.n.P P P d.s       ",
"6 O.^ s $.%.%.O O t.n.q.r.n.B.x.n.E.P.J.I.I.J.J.Q.N.N.E.I.I.I.J.J.P.E.r.r.n.D.D.n.r.r.n.P P P d.s       ",
"  c   s $.%.t.t.t.D.n.r.r.n.t.t.N.E.P.J.J.J.J.Q.N.N.N.N.E.I.J.J.J.P.E.n.n.t.x.D.D.n.n.t.t.t.P d.s       ",
"        _.t.x.x.D.D.B.n.n.t.j j j j E.P.J.J.Q.j j j j j j E.J.J.P.E.j j j j t.B.x.B.x.D.x.x.t._.        ",
"        R.t.B.x.n.n.B.x.t.t t t t t t E.P.P.Q.S.t t t t t E.P.P.E.S.t t t t t t.x.B.t.D.n.n.t.R.        ",
"        R.t.x.n.q.r.n.t.t t t t t t t t E.E.S.t t t t t t t E.E.S.t t t t t t t t.t.t n.q.r.n.R.        ",
"        R.j t.n.r.r.n.R.R.R.R.R.R.R.R.R.R.R.R.R.R.R.R.R.R.R.R.R.R.R.R.R.R.R.R.R.R.R.R.n.r.r.n.R.        ",
"        R.j j R.n.n.T.T.T.T.T.T.T.T.T.T.T.T.T.T.T.T.T.T.T.T.T.T.T.T.T.T.T.T.T.T.T.T.T.T.n.n.j R.)   )   ",
"        R.j U.R.T.T.V.V.V.V.T.T.T.T.T.V.V.V.V.T.T.T.T.T.V.V.V.V.T.T.T.T.T.V.V.V.V.T.T.T.R.j j R.W.6 7 @ ",
"        R.U.U.R.X.V.Y.Y.Y.Y.V.X.X.X.V.Y.Y.Y.Y.V.X.X.X.V.Y.Y.Y.Y.V.X.X.X.V.Y.Y.Y.Y.V.X.X.R.U.j R.Z.`.d   ",
"        R.U.t R.V.Y.Y. +.+Y.Y.V.++V.Y.Y. +.+Y.Y.V.++V.Y.Y. +.+Y.Y.V.++V.Y.Y. +.+Y.Y.V.T.R.U.U.R.  {     ",
"        R.U.t R.V.@+@+.+.+@+@+V.++V.@+@+.+.+@+@+V.++V.@+@+.+.+@+@+V.++V.@+@+.+.+@+@+V.T.R.t U.R.        ",
"    G.) R.U.t R.#+$+@+@+.+@+$+#+T.%+&+@+@+.+@+&+%+T.*+=+@+@+.+@+=+*+T.-+;+@+@+.+@+;+-+X.R.t U.R.        ",
"  c >+,+R.U.t R.#+'+$+$+$+$+'+#+++%+)+&+&+&+&+)+%+++*+!+=+=+=+=+!+*+++-+~+;+;+;+;+~+-+T.R.t U.R.        ",
"    { >+R.U.t R.#+'+N.N.N.N.'+#+{+%+)+N.N.N.N.)+%+{+*+!+N.N.N.N.!+*+{+-+~+N.N.N.N.~+-+{+R.t U.R.        ",
"      c R.U.U.R.#+'+N.N.N.N.'+#+]+%+)+N.N.N.N.)+%+]+*+!+N.N.N.N.!+*+]+-+~+N.N.N.N.~+-+]+R.U.U.R.        ",
"        R.U.t R.]+$+$+$+$+$+$+]+]+]+&+&+&+&+&+&+]+]+]+=+=+=+=+=+=+]+]+]+;+;+;+;+;+;+]+]+R.t U.R.        ",
"        R.U.U.R.]+]+]+]+]+]+]+]+]+]+]+]+]+]+]+]+]+]+]+]+]+]+]+]+]+]+]+]+]+]+]+]+]+]+]+]+R.t U.R.        ",
"        R.U.U.U.R.^+^+^+^+^+^+^+^+^+^+^+^+^+^+^+^+^+^+^+^+^+^+^+^+^+^+^+^+^+^+^+^+^+^+R.U.U.U.R.        ",
"          R.U.U.R.{+{+{+{+{+{+{+{+{+{+{+{+{+{+{+{+{+{+{+{+{+{+{+{+{+{+{+{+{+{+{+{+{+{+R.U.U.R.          ",
"          R.U.U.R./+/+/+/+/+/+/+/+/+/+/+/+/+/+/+/+/+/+/+/+/+/+/+/+/+/+/+/+/+/+/+/+/+/+R.U.U.R.        ) ",
"          R.U.U.R.j j j j j j j j j j j j j j j j j j j j j j j j j j j j j j j j j j R.U.U.R.  ] (+6 _+",
"z B c   c j t t t t t t t t t t t t t t t t t t t t t t t t t t t t t t t t t t t t t t t t j     ~ :+! ",
"6 (+L.c <+j t t t t t t t t t t t t t t t t t t t t t t t t t t t t t t t t t t t t t t t t j     c {   ",
"  [+}+_+|+j t t t t t t t t t t t t t t t t t t t t t t t t t t t t t t t t t t t t t t t t j           ",
"    + !   j l.l.l.l.l.l.l.l.l.l.l.l.l.l.l.l.l.l.l.l.l.l.l.l.l.l.l.l.l.l.l.l.l.l.l.l.l.l.l.l.j           ",
"            R.R.R.R.R.R.R.R.R.R.R.R.R.R.R.R.R.R.R.R.R.R.R.R.R.R.R.R.R.R.R.R.R.R.R.R.R.R.R.R.            ",
"            ~ R.j j R.1+1+1+1+1+1+1+1+1+1+1+1+1+R.j j R.1+1+1+1+1+1+1+1+1+1+1+1+1+R.j j R.    ( c 2+3+6 ",
"            c R.U.U.4+N.N.N.N.N.N.N.N.N.N.N.N.N.4+U.U.4+1+N.N.N.N.N.N.N.N.N.N.N.N.4+U.U.R.    ,+5+W.6+. ",
"              R.U.U.4+4+4+4+4+4+4+4+4+4+4+4+4+4+4+U.U.4+4+4+4+4+4+4+4+4+4+4+4+4+4+4+U.U.R.    ) Z.7+z   "};
