/* XPM */
static char * floor_xpm[] = {
"52 52 372 2",
"  	c #F2EDF1",
". 	c #EEECF0",
"+ 	c #EEEBF0",
"@ 	c #E9EAEF",
"# 	c #F3EEF2",
"$ 	c #C7BBB5",
"% 	c #957B49",
"& 	c #8F7143",
"* 	c #9A8353",
"= 	c #957A4B",
"- 	c #8E7041",
"; 	c #8D6E40",
"> 	c #8F7243",
", 	c #99824F",
"' 	c #CCC2B9",
") 	c #F1EDF1",
"! 	c #EBEAF0",
"~ 	c #DDE5ED",
"{ 	c #F3EEF1",
"] 	c #E6E8EF",
"^ 	c #E2E7EE",
"/ 	c #CEE0EB",
"( 	c #D8E4ED",
"_ 	c #C8DEEA",
": 	c #CABEB7",
"< 	c #907442",
"[ 	c #8C6E40",
"} 	c #8C6D3F",
"| 	c #8E7143",
"1 	c #9A8252",
"2 	c #9D8756",
"3 	c #8F7344",
"4 	c #9D8857",
"5 	c #8C6D3B",
"6 	c #EDEBF0",
"7 	c #C7DEEA",
"8 	c #D9E4ED",
"9 	c #D4E2EC",
"0 	c #C6DDEA",
"a 	c #CCDFEB",
"b 	c #EAEAF0",
"c 	c #F3EDF1",
"d 	c #E1E7EE",
"e 	c #D3E2EC",
"f 	c #CEC3B9",
"g 	c #9C8652",
"h 	c #967D4D",
"i 	c #8F7244",
"j 	c #8E7142",
"k 	c #977E4C",
"l 	c #D2E1EC",
"m 	c #D2E2EC",
"n 	c #F0ECF1",
"o 	c #E3E7EE",
"p 	c #E3E8EF",
"q 	c #A7B4B2",
"r 	c #9C8552",
"s 	c #9C8555",
"t 	c #907344",
"u 	c #9D8656",
"v 	c #927745",
"w 	c #CDC3B9",
"x 	c #D8DDEC",
"y 	c #7B8BA4",
"z 	c #8F703E",
"A 	c #947A4B",
"B 	c #937849",
"C 	c #8C6E3F",
"D 	c #8E7042",
"E 	c #8D6F41",
"F 	c #8D6E3C",
"G 	c #96A8AD",
"H 	c #DAE4EE",
"I 	c #EFECF0",
"J 	c #DFE6EE",
"K 	c #E5E8EF",
"L 	c #E3DBDC",
"M 	c #9F896E",
"N 	c #998251",
"O 	c #9C8655",
"P 	c #9B8453",
"Q 	c #998151",
"R 	c #99804D",
"S 	c #828797",
"T 	c #8ABEDF",
"U 	c #D9E3ED",
"V 	c #E0E7EE",
"W 	c #C3DAEA",
"X 	c #90C7E5",
"Y 	c #91C8E5",
"Z 	c #91C7E5",
"` 	c #B2D3E8",
" .	c #BED8EA",
"..	c #B8D5E9",
"+.	c #83BEE6",
"@.	c #9CC8E7",
"#.	c #E2E8EE",
"$.	c #F3EEF3",
"%.	c #CFC4BB",
"&.	c #967C4D",
"*.	c #9E8857",
"=.	c #93794A",
"-.	c #937748",
";.	c #957C4C",
">.	c #967A43",
",.	c #8C939C",
"'.	c #83BBE1",
").	c #7FABCF",
"!.	c #798BAA",
"~.	c #7A8CAB",
"{.	c #7C8EAC",
"].	c #84A6C5",
"^.	c #83BFE7",
"/.	c #83BFE6",
"(.	c #84ACCD",
"_.	c #8496AF",
":.	c #8497AF",
"<.	c #7DA4C7",
"[.	c #828089",
"}.	c #827F89",
"|.	c #8A898D",
"1.	c #909090",
"2.	c #8F8E8F",
"3.	c #7D90A8",
"4.	c #C2D4EC",
"5.	c #C9BDB6",
"6.	c #98804D",
"7.	c #927748",
"8.	c #917546",
"9.	c #988050",
"0.	c #9A824F",
"a.	c #868084",
"b.	c #85838B",
"c.	c #948A7A",
"d.	c #99804B",
"e.	c #8E6F3D",
"f.	c #8D6D3A",
"g.	c #8C7862",
"h.	c #8A8A8E",
"i.	c #8F8E90",
"j.	c #8A7A6C",
"k.	c #9B824D",
"l.	c #937643",
"m.	c #8F703D",
"n.	c #958770",
"o.	c #909191",
"p.	c #85828A",
"q.	c #9B8554",
"r.	c #8E734C",
"s.	c #CCC4BF",
"t.	c #C1DCE9",
"u.	c #F2EEF2",
"v.	c #C5BAB5",
"w.	c #9D8655",
"x.	c #987F4F",
"y.	c #907445",
"z.	c #94794A",
"A.	c #907345",
"B.	c #947A4A",
"C.	c #8E713F",
"D.	c #B3D8E7",
"E.	c #E6E9EF",
"F.	c #DEE5EF",
"G.	c #90A5AE",
"H.	c #8D6D3B",
"I.	c #9A8352",
"J.	c #957B4B",
"K.	c #DADAE4",
"L.	c #8D8F91",
"M.	c #917544",
"N.	c #917547",
"O.	c #8C6C3E",
"P.	c #9D8652",
"Q.	c #AFB8B4",
"R.	c #E6E9F0",
"S.	c #DFD7D4",
"T.	c #957A40",
"U.	c #9C8554",
"V.	c #998252",
"W.	c #987F50",
"X.	c #977E4E",
"Y.	c #9D8753",
"Z.	c #8699AD",
"`.	c #D8DEED",
" +	c #F0EBEE",
".+	c #C1B3AA",
"++	c #8B6B3A",
"@+	c #8D6F40",
"#+	c #907547",
"$+	c #DBD4D4",
"%+	c #957B48",
"&+	c #8D6E3F",
"*+	c #A59079",
"=+	c #E4DDDE",
"-+	c #E8E9EF",
";+	c #CEC4BB",
">+	c #DAE4ED",
",+	c #F4EEF1",
"'+	c #D0E1EB",
")+	c #CBDFEB",
"!+	c #D5E3EC",
"~+	c #EFECF1",
"{+	c #D1E1EC",
"]+	c #B4D8E8",
"^+	c #DEE5EE",
"/+	c #9B8552",
"(+	c #987F4D",
"_+	c #947A48",
":+	c #89BCDE",
"<+	c #998050",
"[+	c #9B8451",
"}+	c #8D6F3D",
"|+	c #99814E",
"1+	c #8C6E3C",
"2+	c #CABFB7",
"3+	c #C8BDB1",
"4+	c #967D49",
"5+	c #83BAE1",
"6+	c #878C99",
"7+	c #998150",
"8+	c #957B4C",
"9+	c #9D8856",
"0+	c #9B8550",
"a+	c #C8BBB5",
"b+	c #F1ECEF",
"c+	c #CCC1BA",
"d+	c #8C6D39",
"e+	c #85838A",
"f+	c #908E8B",
"g+	c #907240",
"h+	c #CDC2BA",
"i+	c #F1EBEF",
"j+	c #C2B5AD",
"k+	c #8F7240",
"l+	c #C7BCB1",
"m+	c #BEDBE9",
"n+	c #E4E8EF",
"o+	c #CADFEA",
"p+	c #E7E9EF",
"q+	c #8B6C3A",
"r+	c #C0BAB4",
"s+	c #C5DDEA",
"t+	c #CEC3BA",
"u+	c #907341",
"v+	c #9E8753",
"w+	c #90A6B1",
"x+	c #DBE2EF",
"y+	c #9D8755",
"z+	c #8B8175",
"A+	c #D9D6DC",
"B+	c #C6BBB5",
"C+	c #8B6B39",
"D+	c #9C8653",
"E+	c #C6BAAD",
"F+	c #EFEAEE",
"G+	c #DFE5EF",
"H+	c #91A5AD",
"I+	c #967C49",
"J+	c #D9DBE6",
"K+	c #848893",
"L+	c #927645",
"M+	c #9B844B",
"N+	c #DFD7D5",
"O+	c #9B8551",
"P+	c #937845",
"Q+	c #A8B5B2",
"R+	c #F2EDF0",
"S+	c #C5B8B1",
"T+	c #C0DBE9",
"U+	c #D5CBC9",
"V+	c #A18C65",
"W+	c #998250",
"X+	c #98804F",
"Y+	c #9D856C",
"Z+	c #B8D9E8",
"`+	c #F3EFF3",
" @	c #D9D0CB",
".@	c #CABFB4",
"+@	c #8A6A37",
"@@	c #8B6C33",
"#@	c #B7A89A",
"$@	c #C8BCB6",
"%@	c #957C47",
"&@	c #927742",
"*@	c #9B844F",
"=@	c #9E885A",
"-@	c #977F4C",
";@	c #C9BDB7",
">@	c #F4EFF3",
",@	c #F1ECF0",
"'@	c #DCD4D3",
")@	c #DBD3D2",
"!@	c #EBE5E8",
"~@	c #DED6D4",
"{@	c #DDD5D4",
"]@	c #E0D9D7",
"^@	c #8F713F",
"/@	c #A4AEAF",
"(@	c #E5E9F0",
"_@	c #917341",
":@	c #8496AA",
"<@	c #D8DDED",
"[@	c #C9DEEA",
"}@	c #C6DEEA",
"|@	c #C2DCE9",
"1@	c #EFEDF2",
"2@	c #BFBAB5",
"3@	c #8C6C3A",
"4@	c #907343",
"5@	c #9B8366",
"6@	c #E1D9DA",
"7@	c #F1ECF1",
"8@	c #C4DDEA",
"9@	c #DEE0E4",
"0@	c #9BA091",
"a@	c #917444",
"b@	c #DBE5ED",
"c@	c #947A40",
"d@	c #9B824F",
"e@	c #99ADB0",
"f@	c #8E6F3E",
"g@	c #838791",
"h@	c #D9DAE5",
"i@	c #CFE0EB",
"j@	c #E9E9EF",
"k@	c #987F4E",
"l@	c #BBAC96",
"m@	c #EBE4E6",
"n@	c #BBDAE8",
"o@	c #B6D8E8",
"p@	c #CADFEB",
"q@	c #B6D9E8",
"r@	c #F1EDF2",
"s@	c #C3BAB5",
"t@	c #CEDFED",
"u@	c #8FA4AE",
"v@	c #9A814E",
"w@	c #9A8351",
"x@	c #8D6F3E",
"y@	c #98804E",
"z@	c #B9D9E8",
"A@	c #E0E6EE",
"B@	c #80B2D8",
"C@	c #8D8987",
"D@	c #9C854E",
"E@	c #CBC0B8",
"F@	c #A48F77",
"G@	c #C0B2A9",
"H@	c #BEB19F",
"I@	c #8F733B",
"J@	c #917542",
"K@	c #ECEBF0",
"L@	c #DCE5ED",
"M@	c #C1D4EC",
"N@	c #889AAD",
"O@	c #848289",
"P@	c #857A79",
"Q@	c #8C6C33",
"R@	c #ECE6E8",
"S@	c #DDD4D3",
"T@	c #DED7D5",
"U@	c #F2ECF0",
"V@	c #C7BEBC",
"W@	c #8B6F48",
"X@	c #D1E1EB",
"Y@	c #C9DFEA",
"Z@	c #DBE4ED",
"`@	c #DEE6EE",
" #	c #D7E3ED",
".#	c #C0DCE9",
"+#	c #8A6A38",
"@#	c #977F4F",
"                            . +   @ # $ % & * = - & ; > > ; - , ' #                   ) !     @         ",
"        ~ { ] !             ^ / ( _ # : < [ } | 1 2 3 4 4 = [ 5 : #                   6 7 8 8 7 )       ",
"        9 0 a b             c d e ) # f g h } i * 2 3 4 2 2 j k f #                     ! l m n         ",
"        ) o !                       p q r s } } & t ; = 2 u - v w #                                     ",
"                                    x y z > [ A B C D - E & D F G H )   I ! ! ! +         I ! ! ! .     ",
"J J J J J K c                       L M N O > P * & 2 Q - h 2 R S T U V W X Y Z ` V J J V  .X Z Z ..V J ",
"+.+.+.+.+.@.#.                      $.%.r O } i & } &.*.=.-.;.Q >.,.'.+.).!.~.{.].^.+.+./.(._.:.~.<./.+.",
"[.}.|.1.2.3.4.{                     # 5.6.7.& Q Q D ; 8.;.O 9.t D 0.a.b.c.d.e.f.g.h.1.i.[.j.k.l.m.n.o.p.",
"9.8.O 2 q.r.s.#           @ _ n t.. u.v.5 E P 2 w.i x.8.O 2 q.y.z.E E P 2 w.i x.8.O 2 q.y.z.E E P 2 w.& ",
"A.j B.O Q C.5.#             J D.E.  F.G.H.} 7.I.8.} A.j B.O Q A.A.E } 7.I.8.} A.j B.O Q A.A.E } 7.I.8.} ",
"2 I.& z.J.g f #               c     K.L.M.=.1 & z.D 2 I.& z.J.2 *.N.=.1 & z.D 2 I.& z.J.2 *.N.=.1 & z.E ",
"2 4 z.O.B P.Q.R.                    S.T.D U.V.=.*.3 O 4 z.O.B 2 W.- U.V.=.*.3 O 4 z.O.B 2 W.- U.V.=.*.> ",
"O 9.; X.> Y.Z.`.                     +.+++t 1 @+9.i s 9.; X.> 2 J.} t 1 @+9.i s 9.; X.> 2 J.} t 1 @+9.& ",
"E i > E - P #+$+                    # $ %+& * A D > E i > E - P B h & * A D > E i > E - P B h & * A D > ",
"> 4 4 = [ &+*+=+    c   c   @ -+c ~ # : < [ } | 1 2 3 4 4 = [ E 7.7.[ } | 1 2 3 4 4 = [ E 7.7.[ } | 1 2 ",
"> 4 2 2 j k ;+$.  @ >+,+'+) -+)+0 !+# w g h } i * 2 3 4 2 2 j 9.4 2 h } i * 2 3 4 2 2 j 9.4 2 h } i * 2 ",
"; = 2 u - v w #   ~+{+]+^+)   b o ) # w /+s } } & t ; = 2 u - z.2 2 s } } & t ; = 2 u - z.2 2 s } } & A.",
"D - E & D F G H )   n + )         ) H G e.> [ A B C D - E & D D E & > [ A B C D - E & D D E & > [ A B } ",
"r (+5 _+r R S T U J J J J J J J J U :+S 0.O > P * & 2 Q - h 2 <+D 1 O > P * & 2 Q - h 2 <+D 1 [+}+, |+1+",
"w w 2+$ 3+4+>.,.'.+.+.+.+.+.+.+.+.5+6+>.4 O } i & } &.*.=.-.;.7+8+9+O } i & } &.*.=.-.;.7+8+0+3+a+2+: a+",
"# # # # b+c+d+0.a.e+1.1.p.[.}.|.1.f+g+D I.7.& Q Q D ; 8.;.O 9.t D I.7.& Q Q D ; 8.;.O 9.t d+h+b+# # # # ",
".   ~+)   i+j+5 E P 2 w.> x.8.O 2 q.y.z.E E P 2 w.i x.8.O 2 q.y.z.E E P 2 w.i x.8.O 2 q.k+l+i+          ",
"m+n+o+p+  # 5.q+} 7.I.8.} A.j B.O Q A.A.E } 7.I.8.} A.j B.O Q A.A.E } 7.I.8.} A.j B.O Q C.r+~+          ",
"6 s+^ c   # t+u+=.1 & z.D 2 I.& z.J.2 *.N.=.1 & z.D 2 I.& z.J.2 *.N.=.1 & z.D 2 I.& z.J.v+w+x+          ",
"  c       # : 5 U.V.=.*.3 O 4 z.O.B 2 W.- U.V.=.*.3 O 4 z.O.B 2 W.- U.V.=.*.3 O 4 z.O.B y+z+A+          ",
"          u.B+C+t 1 @+9.i s 9.; X.> 2 J.} t 1 @+9.i s 9.; X.> 2 J.} t 1 @+9.i s 9.; X.> D+E+F+          ",
"          G+H+I+& * A D > E i > E - P B h & * A D > E i > E - P B h & * A D > E i > E - , ' #           ",
"          J+K+L+[ } | 1 2 3 4 4 = [ E 7.7.[ } | 1 2 3 4 4 = [ E 7.7.[ } | 1 2 3 4 4 = [ 5 : #           ",
"          S.M+2 h } i * 2 3 4 2 2 j 9.4 2 h } i * 2 3 4 2 2 j 9.4 2 h } i * 2 3 4 2 2 j k t+#           ",
"          N+O+2 s } } & t ; = 2 u - z.2 2 s } } & t ; = 2 u - z.2 2 s } } & t ; = 2 u - P+Q+p   )   )   ",
"          R+S+}+> [ A B C D - E & D D E & > [ A B C D - E & D D E & > [ A B C D - E & D e.y x . T+6 7 @ ",
"          # U+V+[+> P W+}+[+(+5 _+r <+D 1 s }+, |+}+[+(+5 _+r <+D 1 O > P * & 2 Q - h 2 X+Y+L   -+Z+d   ",
"            `+ @.@+@@@#@$@w w 2+$ 3+%@&@*@=@$ 2+: $@w w 2+$ 3+4+8+9+O } i & } &.*.=.-.;.-@;@>@    {     ",
"              # ,@'@)@!@# # # # # b+~@{@S.]@# # # # # # # # b+c+d+I.7.& Q Q D ; 8.;.O 9.^@/@(@          ",
"    ~+)   I               ) I     .                 ) I   I   i+j+5 E P 2 w.i x.8.O 2 q._@:@<@          ",
"  c {+>+J [@c             b }@n+o t.    p+) ~+@     b }@K |@I 1@2@3@} 7.I.8.} A.j B.O Q 4@5@6@          ",
"    { {+)+c                 K s+7 7@  c e {+'+>+c     K 8@!   9@0@a@=.1 & z.D 2 I.& z.J.g ;+$.          ",
"      c c                     c c       c b@J c         c     ~@c@D U.V.=.*.3 O 4 z.O.B r w #           ",
"                                                               +.+++t 1 @+9.i s 9.; X.> r ' u.          ",
"                                                    n ! c b ) # $ %+& * A D > E i > E - d@e@F.          ",
"              c                   c                 ! _ 8 }@I # : < [ } | 1 2 3 4 4 = [ f@g@h@          ",
"            c e I ,+d o     o d c i@                  j@{+6   # w g h } i * 2 3 4 2 2 j k@l@m@          ",
"              -+n@o@p@+     + p@q@^                           # w /+s } } & t ; = 2 u - v t+#         ) ",
"                . + n         n +             I ! ! ! +       r@s@}+> [ A B C D - E & D 5 $@#   ] )+6 n@",
"I K c   c 6 -+                        c K J V W X Y Z ` V J J t@u@v@[+}+, w@x@[+y@D &./+V+U+#     ~ z@! ",
"6 )+n+c i@a A@                        #.@.+.+.).!.~.{.].^.+.+.B@C@D@3+a+E@F@G@w H@I@J@.@ @`+      c {   ",
"  K@p@n@L@n+c                       { M@N@O@b.c.d.e.f.g.h.1.i.P@Q@h+b+# $.=+F+# R@S@T@U@#               ",
"    + !                             # V@W@E P 2 w.i x.8.O 2 q.k+l+i+            n n   .                 ",
"            b . ) p+                # 5.q+} 7.I.8.} A.j B.O Q C.5.# ) p+c -+n   J '+o t.                ",
"            ~ i@l X@c               # t+u+=.1 & z.D 2 I.& z.J.g w # ~+Y@e o+K@  c Z@}@7@      ( c ,+`@6 ",
"            c A@>+c                 # : 5 U.V.=.*.3 O 4 z.O.B r w #   +  #b       c c         >+.#T+'+. ",
"                                    # a++#3 V.; <+3 O 9.; @#> r w #                           ) -+p+I   "};
