/* XPM */
static char * item_xpm[] = {
"52 52 679 2",
"  	c #F2EDF1",
". 	c #EEECF0",
"+ 	c #EEEBF0",
"@ 	c #E9EAEF",
"# 	c #F3EEF2",
"$ 	c #C7BBB5",
"% 	c #957B49",
"& 	c #8F7143",
"* 	c #9A8353",
"= 	c #957A4B",
"- 	c #8E7041",
"; 	c #8D6E40",
"> 	c #8F7243",
", 	c #99824F",
"' 	c #CCC2B9",
") 	c #F1EDF1",
"! 	c #EBEAF0",
"~ 	c #DDE5ED",
"{ 	c #F3EEF1",
"] 	c #E6E8EF",
"^ 	c #E2E7EE",
"/ 	c #CEE0EB",
"( 	c #D8E4ED",
"_ 	c #C8DEEA",
": 	c #CABEB7",
"< 	c #907442",
"[ 	c #8C6E40",
"} 	c #8C6D3F",
"| 	c #8E7143",
"1 	c #9A8252",
"2 	c #9D8756",
"3 	c #8F7344",
"4 	c #9D8857",
"5 	c #8C6D3B",
"6 	c #EDEBF0",
"7 	c #C7DEEA",
"8 	c #D9E4ED",
"9 	c #D4E2EC",
"0 	c #C6DDEA",
"a 	c #CCDFEB",
"b 	c #EAEAF0",
"c 	c #F3EDF1",
"d 	c #E1E7EE",
"e 	c #D3E2EC",
"f 	c #CEC3B9",
"g 	c #9C8652",
"h 	c #967D4D",
"i 	c #8F7244",
"j 	c #8E7142",
"k 	c #977E4C",
"l 	c #D2E1EC",
"m 	c #D2E2EC",
"n 	c #F0ECF1",
"o 	c #E3E7EE",
"p 	c #E3E8EF",
"q 	c #A7B4B2",
"r 	c #9C8552",
"s 	c #9C8555",
"t 	c #907344",
"u 	c #9D8656",
"v 	c #927745",
"w 	c #CDC3B9",
"x 	c #D8DDEC",
"y 	c #7B8BA4",
"z 	c #8F703E",
"A 	c #947A4B",
"B 	c #937849",
"C 	c #8C6E3F",
"D 	c #8E7042",
"E 	c #8D6F41",
"F 	c #8D6E3C",
"G 	c #96A8AD",
"H 	c #DAE4EE",
"I 	c #EFECF0",
"J 	c #DFE6EE",
"K 	c #E5E8EF",
"L 	c #E3DBDC",
"M 	c #9F896E",
"N 	c #998251",
"O 	c #9C8655",
"P 	c #9B8453",
"Q 	c #998151",
"R 	c #99804D",
"S 	c #828797",
"T 	c #8ABEDF",
"U 	c #D9E3ED",
"V 	c #E0E7EE",
"W 	c #C3DAEA",
"X 	c #90C7E5",
"Y 	c #91C8E5",
"Z 	c #91C7E5",
"` 	c #B2D3E8",
" .	c #BED8EA",
"..	c #B8D5E9",
"+.	c #83BEE6",
"@.	c #9CC8E7",
"#.	c #E2E8EE",
"$.	c #F3EEF3",
"%.	c #CFC4BB",
"&.	c #967C4D",
"*.	c #9E8857",
"=.	c #93794A",
"-.	c #937748",
";.	c #957C4C",
">.	c #967A43",
",.	c #8C939C",
"'.	c #83BBE1",
").	c #7FABCF",
"!.	c #798BAA",
"~.	c #7A8CAB",
"{.	c #7C8EAC",
"].	c #84A6C5",
"^.	c #83BFE7",
"/.	c #83BFE6",
"(.	c #84ACCD",
"_.	c #8496AF",
":.	c #8497AF",
"<.	c #7DA4C7",
"[.	c #828089",
"}.	c #827F89",
"|.	c #8A898D",
"1.	c #909090",
"2.	c #8F8E8F",
"3.	c #7D90A8",
"4.	c #C2D4EC",
"5.	c #C9BDB6",
"6.	c #98804D",
"7.	c #927748",
"8.	c #917546",
"9.	c #988050",
"0.	c #9A824F",
"a.	c #868084",
"b.	c #85838B",
"c.	c #948A7A",
"d.	c #99804B",
"e.	c #8E6F3D",
"f.	c #8D6D3A",
"g.	c #8C7862",
"h.	c #8A8A8E",
"i.	c #8F8E90",
"j.	c #8A7A6C",
"k.	c #9B824D",
"l.	c #937643",
"m.	c #8F703D",
"n.	c #958770",
"o.	c #909191",
"p.	c #85828A",
"q.	c #9B8554",
"r.	c #8E734C",
"s.	c #CCC4BF",
"t.	c #C1DCE9",
"u.	c #F2EEF2",
"v.	c #C5BAB5",
"w.	c #9D8655",
"x.	c #987F4F",
"y.	c #907445",
"z.	c #94794A",
"A.	c #907345",
"B.	c #947A4A",
"C.	c #8E713F",
"D.	c #B3D8E7",
"E.	c #E6E9EF",
"F.	c #DEE5EF",
"G.	c #90A5AE",
"H.	c #8D6D3B",
"I.	c #9A8352",
"J.	c #957B4B",
"K.	c #E7DBDE",
"L.	c #CBA6A5",
"M.	c #B1685F",
"N.	c #AE5D52",
"O.	c #AE5C51",
"P.	c #AD5950",
"Q.	c #AF6153",
"R.	c #BB8865",
"S.	c #CBB17A",
"T.	c #D3C284",
"U.	c #AD5F52",
"V.	c #A76D52",
"W.	c #956E46",
"X.	c #917547",
"Y.	c #8C6C3E",
"Z.	c #9D8652",
"`.	c #AFB8B4",
" +	c #E6E9F0",
".+	c #AF6156",
"++	c #B67669",
"@+	c #BC8778",
"#+	c #B87D70",
"$+	c #B26A5D",
"%+	c #BA8763",
"&+	c #CBB07A",
"*+	c #D4C284",
"=+	c #BB8764",
"-+	c #B26B5D",
";+	c #B67668",
">+	c #AF6155",
",+	c #A86F54",
"'+	c #99744C",
")+	c #987F50",
"!+	c #9C8554",
"~+	c #998252",
"{+	c #977E4E",
"]+	c #9D8753",
"^+	c #8699AD",
"/+	c #D8DEED",
"(+	c #AD594E",
"_+	c #B1685C",
":+	c #C49B8A",
"<+	c #D4BDA9",
"[+	c #CCAD9B",
"}+	c #B87D6E",
"|+	c #BA8562",
"1+	c #CBB079",
"2+	c #D4C384",
"3+	c #BA8663",
"4+	c #B87E6F",
"5+	c #CCAC9B",
"6+	c #D4BDA8",
"7+	c #C49A89",
"8+	c #A66C51",
"9+	c #946B44",
"0+	c #8D6F40",
"a+	c #907547",
"b+	c #DBD4D4",
"c+	c #B1675F",
"d+	c #AE5C52",
"e+	c #AC574D",
"f+	c #B26B5E",
"g+	c #CAA993",
"h+	c #DFD3B8",
"i+	c #DAC8AF",
"j+	c #C59E8B",
"k+	c #C09778",
"l+	c #C8AD7B",
"m+	c #CCB97E",
"n+	c #CCB97D",
"o+	c #C6AB75",
"p+	c #BC8E66",
"q+	c #C2977E",
"r+	c #DBCAB3",
"s+	c #E3D9C2",
"t+	c #CDAE9B",
"u+	c #B26C60",
"v+	c #AC564C",
"w+	c #AD5D51",
"x+	c #A3654D",
"y+	c #8D6E3F",
"z+	c #A59079",
"A+	c #E4DDDE",
"B+	c #E8DBDE",
"C+	c #CAA5A5",
"D+	c #B0655F",
"E+	c #AD5A51",
"F+	c #AC564E",
"G+	c #B2695A",
"H+	c #C59F81",
"I+	c #D9C9A2",
"J+	c #DED2AF",
"K+	c #D9C8AF",
"L+	c #CEBA9F",
"M+	c #BFA880",
"N+	c #B69E6C",
"O+	c #B59D6B",
"P+	c #B99E6C",
"Q+	c #C0A06D",
"R+	c #CEB48B",
"S+	c #E3D8BA",
"T+	c #E6DEC6",
"U+	c #CEB09E",
"V+	c #B26B60",
"W+	c #AC534B",
"X+	c #AC5B51",
"Y+	c #A76E53",
"Z+	c #A08156",
"`+	c #CEC4BB",
" @	c #D4D5DB",
".@	c #CEADA7",
"+@	c #B47865",
"@@	c #B3715A",
"#@	c #B4715A",
"$@	c #B3705A",
"%@	c #AF6856",
"&@	c #AF6C58",
"*@	c #BB9069",
"=@	c #CBB582",
"-@	c #DACEA3",
";@	c #E3DBBB",
">@	c #D5CBAE",
",@	c #B6A280",
"'@	c #A4885E",
")@	c #A78C60",
"!@	c #B59D6F",
"~@	c #C9B582",
"{@	c #D8CA9C",
"]@	c #E1DAB8",
"^@	c #DFD5BB",
"/@	c #CBAD97",
"(@	c #B77B65",
"_@	c #B26D56",
":@	c #B27159",
"<@	c #AB7A59",
"[@	c #A18357",
"}@	c #EFECF1",
"|@	c #CFD7DC",
"1@	c #BEB7AA",
"2@	c #C5A379",
"3@	c #C4A071",
"4@	c #C5A071",
"5@	c #C29D6F",
"6@	c #B68C65",
"7@	c #AB7D5C",
"8@	c #AD875E",
"9@	c #B89F6D",
"0@	c #CABB8C",
"a@	c #DACFA5",
"b@	c #CFC39B",
"c@	c #B19B76",
"d@	c #A78B60",
"e@	c #C8B687",
"f@	c #D9CFA6",
"g@	c #DED7B2",
"h@	c #D4CAAB",
"i@	c #C9BA9B",
"j@	c #C5AC87",
"k@	c #C4A275",
"l@	c #C49F70",
"m@	c #C29E70",
"n@	c #B59365",
"o@	c #A58C5C",
"p@	c #EAE3E1",
"q@	c #DACBB3",
"r@	c #CFB883",
"s@	c #CDB57C",
"t@	c #CEB67D",
"u@	c #CAB17A",
"v@	c #BB9D6E",
"w@	c #A8855F",
"x@	c #A27E5A",
"y@	c #A7875F",
"z@	c #B99F71",
"A@	c #CAB581",
"B@	c #C4AE7C",
"C@	c #AE9468",
"D@	c #AD9364",
"E@	c #C0AB75",
"F@	c #D2C393",
"G@	c #E0D6B4",
"H@	c #DDD3B8",
"I@	c #C3B196",
"J@	c #B29772",
"K@	c #BEA373",
"L@	c #CBB37B",
"M@	c #CBB37A",
"N@	c #B9A06B",
"O@	c #9B8050",
"P@	c #987F4D",
"Q@	c #947A48",
"R@	c #DADBDE",
"S@	c #CEBCAD",
"T@	c #C4A178",
"U@	c #C39D70",
"V@	c #C49E70",
"W@	c #C19A6E",
"X@	c #B68B65",
"Y@	c #AA785A",
"Z@	c #A56F55",
"`@	c #A77257",
" #	c #B1825F",
".#	c #BC9368",
"+#	c #B79266",
"@#	c #A8875F",
"##	c #B59D6C",
"$#	c #C2AB81",
"%#	c #CDB599",
"&#	c #CBAF9A",
"*#	c #B8907B",
"=#	c #AC7A5C",
"-#	c #B68A62",
";#	c #C19B6E",
">#	c #C29C6F",
",#	c #B59366",
"'#	c #9A7A4C",
")#	c #998050",
"!#	c #9B8451",
"~#	c #8D6F3D",
"{#	c #99814E",
"]#	c #8C6E3C",
"^#	c #CABFB7",
"/#	c #C8BDB1",
"(#	c #967D49",
"_#	c #8DB3D5",
":#	c #A392A1",
"<#	c #B17364",
"[#	c #B36E59",
"}#	c #B26D59",
"|#	c #B06856",
"1#	c #AD6354",
"2#	c #AC6153",
"3#	c #AD6253",
"4#	c #AF6655",
"5#	c #B16C58",
"6#	c #AE775B",
"7#	c #A7825D",
"8#	c #A58A5F",
"9#	c #A88D62",
"0#	c #AD8B65",
"a#	c #B38169",
"b#	c #B47567",
"c#	c #B06A5D",
"d#	c #AE6555",
"e#	c #B06956",
"f#	c #B26F59",
"g#	c #AC7858",
"h#	c #9A774D",
"i#	c #998150",
"j#	c #957B4C",
"k#	c #9B8550",
"l#	c #C8BBB5",
"m#	c #F1ECEF",
"n#	c #CCC1BA",
"o#	c #8C6D39",
"p#	c #85838A",
"q#	c #968887",
"r#	c #A3726E",
"s#	c #AC5C54",
"t#	c #AE5B51",
"u#	c #AE5951",
"v#	c #B1765B",
"w#	c #B59468",
"x#	c #B8A16E",
"y#	c #B7A06E",
"z#	c #B59367",
"A#	c #B07459",
"B#	c #AD5A4F",
"C#	c #AD584F",
"D#	c #AC5B50",
"E#	c #CDC2BA",
"F#	c #F1EBEF",
"G#	c #C2B5AD",
"H#	c #A08155",
"I#	c #A86E53",
"J#	c #AD5E51",
"K#	c #AF6053",
"L#	c #B88463",
"M#	c #C6AA76",
"N#	c #CDBA7E",
"O#	c #B88362",
"P#	c #A4674E",
"Q#	c #A08054",
"R#	c #8F7240",
"S#	c #C7BCB1",
"T#	c #BEDBE9",
"U#	c #E4E8EF",
"V#	c #CADFEA",
"W#	c #E7E9EF",
"X#	c #8B6C3A",
"Y#	c #9E7D52",
"Z#	c #A5674E",
"`#	c #AE5F51",
" $	c #AF5E52",
".$	c #AE5A51",
"+$	c #B06154",
"@$	c #BC8966",
"#$	c #CDB27B",
"$$	c #D5C485",
"%$	c #AE5F52",
"&$	c #A4664D",
"*$	c #99754C",
"=$	c #C0BAB4",
"-$	c #C5DDEA",
";$	c #CEC3BA",
">$	c #907341",
",$	c #956D46",
"'$	c #A4684F",
")$	c #AC5D51",
"!$	c #AD5C52",
"~$	c #AE6053",
"{$	c #BA8765",
"]$	c #D3C183",
"^$	c #AC5E52",
"/$	c #A66C52",
"($	c #9E8753",
"_$	c #90A6B1",
":$	c #DBE2EF",
"<$	c #96734A",
"[$	c #A06A4F",
"}$	c #A0554A",
"|$	c #A1534A",
"1$	c #A15049",
"2$	c #A2564C",
"3$	c #AE7B5C",
"4$	c #BEA270",
"5$	c #C6B279",
"6$	c #A1564A",
"7$	c #97734A",
"8$	c #9D8755",
"9$	c #8B8175",
"0$	c #D9D6DC",
"a$	c #C6BBB5",
"b$	c #8B6B39",
"c$	c #8D683F",
"d$	c #915E44",
"e$	c #8C433C",
"f$	c #8C403C",
"g$	c #8B3E3B",
"h$	c #8D443E",
"i$	c #98654D",
"j$	c #AF9667",
"k$	c #8D443D",
"l$	c #8D673F",
"m$	c #9C8653",
"n$	c #C6BAAD",
"o$	c #EFEAEE",
"p$	c #DFE5EF",
"q$	c #91A5AD",
"r$	c #967C49",
"s$	c #907147",
"t$	c #845039",
"u$	c #7F3734",
"v$	c #7E3333",
"w$	c #7D3032",
"x$	c #7F3634",
"y$	c #8A5743",
"z$	c #997654",
"A$	c #A1835C",
"B$	c #85513A",
"C$	c #8C6A40",
"D$	c #D9DBE6",
"E$	c #848893",
"F$	c #927645",
"G$	c #8B6940",
"H$	c #895A40",
"I$	c #7E3834",
"J$	c #7D3232",
"K$	c #7D2F31",
"L$	c #7E3534",
"M$	c #895542",
"N$	c #987553",
"O$	c #A0825B",
"P$	c #7E3633",
"Q$	c #8A5E42",
"R$	c #987D52",
"S$	c #DFD7D4",
"T$	c #9B844B",
"U$	c #8C6A41",
"V$	c #895B41",
"W$	c #7F3935",
"X$	c #8A5643",
"Y$	c #A0835B",
"Z$	c #8A5E43",
"`$	c #987D51",
" %	c #DFD7D5",
".%	c #9B8551",
"+%	c #8A653D",
"@%	c #855139",
"#%	c #87563D",
"$%	c #937845",
"%%	c #A8B5B2",
"&%	c #F2EDF0",
"*%	c #C5B8B1",
"=%	c #86553C",
"-%	c #8A673F",
";%	c #C0DBE9",
">%	c #D5CBC9",
",%	c #A18C65",
"'%	c #967A4E",
")%	c #895A3F",
"!%	c #7F3733",
"~%	c #8B683F",
"{%	c #98804F",
"]%	c #9D856C",
"^%	c #E8E9EF",
"/%	c #B8D9E8",
"(%	c #F3EFF3",
"_%	c #D9D0CB",
":%	c #CABFB4",
"<%	c #8A6A37",
"[%	c #896433",
"}%	c #967169",
"|%	c #82403F",
"1%	c #7F3834",
"2%	c #8B5E43",
"3%	c #8F7046",
"4%	c #977F4C",
"5%	c #C9BDB7",
"6%	c #F4EFF3",
"7%	c #F1ECF0",
"8%	c #DCD4D3",
"9%	c #CEC2C1",
"0%	c #B19799",
"a%	c #854849",
"b%	c #85533B",
"c%	c #917348",
"d%	c #8F713F",
"e%	c #A4AEAF",
"f%	c #E5E9F0",
"g%	c #E2D9DD",
"h%	c #B49C9F",
"i%	c #977C50",
"j%	c #917341",
"k%	c #8496AA",
"l%	c #D8DDED",
"m%	c #D1E1EC",
"n%	c #DAE4ED",
"o%	c #C9DEEA",
"p%	c #845139",
"q%	c #907146",
"r%	c #907343",
"s%	c #9B8366",
"t%	c #E1D9DA",
"u%	c #CBDFEB",
"v%	c #895B40",
"w%	c #8C6940",
"x%	c #907046",
"y%	c #88593F",
"z%	c #8A663E",
"A%	c #9B824F",
"B%	c #99ADB0",
"C%	c #987E52",
"D%	c #8E6F3E",
"E%	c #838791",
"F%	c #D9DAE5",
"G%	c #F4EEF1",
"H%	c #D3D4DA",
"I%	c #AC989D",
"J%	c #987F4E",
"K%	c #BBAC96",
"L%	c #EBE4E6",
"M%	c #BBDAE8",
"N%	c #B6D8E8",
"O%	c #CADFEB",
"P%	c #B6D9E8",
"Q%	c #9B8552",
"R%	c #F1EDF2",
"S%	c #C3BAB5",
"T%	c #C8BCB6",
"U%	c #CEDFED",
"V%	c #8FA4AE",
"W%	c #9A814E",
"X%	c #9A8351",
"Y%	c #8D6F3E",
"Z%	c #98804E",
"`%	c #B9D9E8",
" &	c #CFE0EB",
".&	c #E0E6EE",
"+&	c #80B2D8",
"@&	c #8D8987",
"#&	c #9C854E",
"$&	c #CBC0B8",
"%&	c #A48F77",
"&&	c #C0B2A9",
"*&	c #BEB19F",
"=&	c #8F733B",
"-&	c #917542",
";&	c #ECEBF0",
">&	c #DCE5ED",
",&	c #C1D4EC",
"'&	c #889AAD",
")&	c #848289",
"!&	c #857A79",
"~&	c #8C6C33",
"{&	c #ECE6E8",
"]&	c #DDD4D3",
"^&	c #DED7D5",
"/&	c #F2ECF0",
"(&	c #C7BEBC",
"_&	c #8B6F48",
":&	c #D0E1EB",
"<&	c #D1E1EB",
"[&	c #C9DFEA",
"}&	c #DBE4ED",
"|&	c #C6DEEA",
"1&	c #F1ECF1",
"2&	c #DEE6EE",
"3&	c #D7E3ED",
"4&	c #C0DCE9",
"5&	c #8A6A38",
"6&	c #977F4F",
"                            . +   @ # $ % & * = - & ; > > ; - , ' #                   ) !     @         ",
"        ~ { ] !             ^ / ( _ # : < [ } | 1 2 3 4 4 = [ 5 : #                   6 7 8 8 7 )       ",
"        9 0 a b             c d e ) # f g h } i * 2 3 4 2 2 j k f #                     ! l m n         ",
"        ) o !                       p q r s } } & t ; = 2 u - v w #                                     ",
"                                    x y z > [ A B C D - E & D F G H )   I ! ! ! +         I ! ! ! .     ",
"J J J J J K c                       L M N O > P * & 2 Q - h 2 R S T U V W X Y Z ` V J J V  .X Z Z ..V J ",
"+.+.+.+.+.@.#.                      $.%.r O } i & } &.*.=.-.;.Q >.,.'.+.).!.~.{.].^.+.+./.(._.:.~.<./.+.",
"[.}.|.1.2.3.4.{                     # 5.6.7.& Q Q D ; 8.;.O 9.t D 0.a.b.c.d.e.f.g.h.1.i.[.j.k.l.m.n.o.p.",
"9.8.O 2 q.r.s.#           @ _ n t.. u.v.5 E P 2 w.i x.8.O 2 q.y.z.E E P 2 w.i x.8.O 2 q.y.z.E E P 2 w.& ",
"A.j B.O Q C.5.#             J D.E.  F.G.H.} 7.I.8.} A.j B.O Q A.A.E } 7.I.8.} A.j B.O Q A.A.E } 7.I.8.} ",
"2 I.& z.J.g f #     K.L.M.N.N.N.N.N.N.N.O.P.Q.R.S.T.T.S.R.Q.P.O.N.N.N.N.N.N.N.U.V.W.z.J.2 *.X.=.1 & z.E ",
"2 4 z.Y.B Z.`. +    K.L.M.N.N.N.N.O..+++@+#+$+%+&+*+*+S.=+-+#+@+;+>+O.N.N.N.N.U.,+'+Y.B 2 )+- !+~+=.*.> ",
"O 9.; {+> ]+^+/+    K.L.M.N.N.N.N.(+_+:+<+[+}+|+1+2+2+1+3+4+5+6+7+_+(+N.N.N.N.U.8+9+{+> 2 J.} t 1 0+9.& ",
"E i > E - P a+b+    K.L.c+d+d+d+d+e+f+g+h+i+j+k+l+m+n+o+p+q+r+s+t+u+v+d+d+d+d+w+x+W.E - P B h & * A D > ",
"> 4 4 = [ y+z+A+    B+C+D+E+E+E+E+F+G+H+I+J+K+L+M+N+O+P+Q+R+S+T+U+V+W+E+E+E+E+X+Y+Z+= [ E 7.7.[ } | 1 2 ",
"> 4 2 2 j k `+$.  @  @.@+@@@@@#@$@%@&@*@=@-@;@>@,@'@)@!@~@{@]@^@/@(@_@@@@@@@@@:@<@[@2 j 9.4 2 h } i * 2 ",
"; = 2 u - v w #   }@|@1@2@3@3@4@5@6@7@8@9@0@a@b@c@d@O+e@f@g@h@i@j@k@l@3@3@3@3@m@n@o@u - z.2 2 s } } & A.",
"D - E & D F G H )   p@q@r@s@s@t@u@v@w@x@y@z@A@B@C@D@E@F@G@H@I@J@K@L@t@s@s@s@s@M@N@O@& D D E & > [ A B } ",
"r P@5 Q@r R S T U J R@S@T@U@U@V@W@X@Y@Z@`@ #.#+#@#)@##$#%#&#*#=#-#;#V@U@U@U@U@>#,#'#h 2 )#D 1 !#~#, {#]#",
"w w ^#$ /#(#>.,.'.+._#:#<#[#[#[#}#|#1#2#3#4#5#6#7#8#9#0#a#b#c#d#e#}#[#[#[#[#[#f#g#h#-.;.i#j#k#/#l#^#: l#",
"# # # # m#n#o#0.a.p#q#r#s#E+E+E+E+t#d+d+d+u#d+v#w#x#y#z#A#B#C#O.t#E+E+E+E+E+E+D#x+h#O 9.t o#E#m## # # # ",
".   }@)   F#G#5 E P H#I#J#N.N.N.N.N.N.N.N.E+K#L#M#N#N#M#O#K#E+N.N.N.N.N.N.N.N.U.P#Q#2 q.R#S#F#          ",
"T#U#V#W#  # 5.X#} 7.Y#Z#`# $ $ $ $ $ $ $ $.$+$@$#$$$$$#$@$+$.$ $ $ $ $ $ $ $ $%$&$*$O Q C.=$}@          ",
"6 -$^ c   # ;$>$=.1 ,$'$)$!$!$!$!$!$!$!$!$P.~${$&+]$]$&+{$~$P.!$!$!$!$!$!$!$!$^$/$,$z.J.($_$:$          ",
"  c       # : 5 !+~+<$[$}$|$|$|$|$|$|$|$|$1$2$3$4$5$5$4$3$2$1$|$|$|$|$|$|$|$|$6$[$7$Y.B 8$9$0$          ",
"          u.a$b$t 1 c$d$e$f$f$f$f$f$f$f$f$g$h$i$y@j$j$y@i$h$g$f$f$f$f$f$f$f$f$k$d$l${+> m$n$o$          ",
"          p$q$r$& * s$t$u$v$v$v$v$v$v$v$v$w$x$y$z$A$A$z$y$x$w$v$v$v$v$v$v$v$v$u$B$C$E - , ' #           ",
"          D$E$F$[ } G$H$I$J$J$J$J$J$J$J$J$K$L$M$N$O$O$N$M$L$K$J$J$J$J$J$J$J$J$P$Q$R$= [ 5 : #           ",
"          S$T$2 h } U$V$W$v$v$v$v$v$v$v$v$w$x$X$z$Y$Y$z$X$x$w$v$v$v$v$v$v$v$v$u$Z$`$2 j k ;$#           ",
"           %.%2 s } +%@%u$v$v$v$v$v$v$v$v$w$x$X$z$Y$Y$z$X$x$w$v$v$v$v$v$v$v$v$u$#%`$u - $%%%p   )   )   ",
"          &%*%~#> [ s$=%u$v$v$v$v$v$v$v$v$w$x$X$z$Y$Y$z$X$x$w$v$v$v$v$v$v$v$v$u$t$-%& D e.y x . ;%6 7 @ ",
"          # >%,%!#> '%)%!%v$v$v$v$v$v$v$v$w$x$X$z$Y$Y$z$X$x$w$v$v$v$v$v$v$v$v$W$H$~%h 2 {%]%L   ^%/%d   ",
"            (%_%:%<%[%}%|%v$v$v$v$v$v$v$v$w$x$X$z$Y$Y$z$X$x$w$v$v$v$v$v$v$v$v$1%2%3%-.;.4%5%6%    {     ",
"              # 7%8%9%0%a%v$v$v$v$v$v$v$v$w$x$X$z$Y$Y$z$X$x$w$v$v$v$v$v$v$v$v$u$b%c%O 9.d%e%f%          ",
"    }@)   I         g%h%a%v$v$v$v$v$v$v$v$w$x$X$z$Y$Y$z$X$x$w$v$v$v$v$v$v$v$v$1%b%i%2 q.j%k%l%          ",
"  c m%n%J o%c       g%h%a%v$v$v$v$v$v$v$v$w$x$X$z$Y$Y$z$X$x$w$v$v$v$v$v$v$v$v$u$p%q%O Q r%s%t%          ",
"    { m%u%c         g%h%a%v$v$v$v$v$v$v$v$w$x$X$z$Y$Y$z$X$x$w$v$v$v$v$v$v$v$v$W$v%w%z.J.g `+$.          ",
"      c c           g%h%a%v$v$v$v$v$v$v$v$w$x$X$z$Y$Y$z$X$x$w$v$v$v$v$v$v$v$v$W$Z$x%Y.B r w #           ",
"                    g%h%a%v$v$v$v$v$v$v$v$w$x$X$z$Y$Y$z$X$x$w$v$v$v$v$v$v$v$v$W$y%z%{+> r ' u.          ",
"                    g%h%a%v$v$v$v$v$v$v$v$w$x$X$z$Y$Y$z$X$x$w$v$v$v$v$v$v$v$v$u$B$C$E - A%B%F.          ",
"              c     g%h%a%v$v$v$v$v$v$v$v$w$x$X$z$Y$Y$z$X$x$w$v$v$v$v$v$v$v$v$u$Z$C%= [ D%E%F%          ",
"            c e I G%H%I%a%v$v$v$v$v$v$v$v$w$x$X$z$Y$Y$z$X$x$w$v$v$v$v$v$v$v$v$u$Z$`$2 j J%K%L%          ",
"              ^%M%N%O%+     + O%P%^                           # w Q%s } } & t ; = 2 u - v ;$#         ) ",
"                . + n         n +             I ! ! ! +       R%S%~#> [ A B C D - E & D 5 T%#   ] u%6 M%",
"I K c   c 6 ^%                        c K J V W X Y Z ` V J J U%V%W%!#~#, X%Y%!#Z%D &.Q%,%>%#     ~ `%! ",
"6 u%U#c  &a .&                        #.@.+.+.).!.~.{.].^.+.+.+&@&#&/#l#$&%&&&w *&=&-&:%_%(%      c {   ",
"  ;&O%M%>&U#c                       { ,&'&)&b.c.d.e.f.g.h.1.i.!&~&E#m## $.A+o$# {&]&^&/&#               ",
"    + !                             # (&_&E P 2 w.i x.8.O 2 q.R#S#F#            n n   .                 ",
"            b . ) W#                # 5.X#} 7.I.8.} A.j B.O Q C.5.# ) W#c ^%n   J :&o t.                ",
"            ~  &l <&c               # ;$>$=.1 & z.D 2 I.& z.J.g w # }@[&e V#;&  c }&|&1&      ( c G%2&6 ",
"            c .&n%c                 # : 5 !+~+=.*.3 O 4 z.Y.B r w #   + 3&b       c c         n%4&;%:&. ",
"                                    # l#5&3 ~+; )#3 O 9.; 6&> r w #                           ) ^%W#I   "};
