/* XPM */
static char * wall_xpm[] = {
"52 52 837 2",
"  	c #F2EDF1",
". 	c #EEECF0",
"+ 	c #EEEBF0",
"@ 	c #E9EAEF",
"# 	c #F3EEF2",
"$ 	c #C7BBB5",
"% 	c #957B49",
"& 	c #8F7143",
"* 	c #9A8353",
"= 	c #957A4B",
"- 	c #8E7041",
"; 	c #8D6E40",
"> 	c #8F7243",
", 	c #99824F",
"' 	c #CCC2B9",
") 	c #F1EDF1",
"! 	c #EBEAF0",
"~ 	c #DDE5ED",
"{ 	c #F3EEF1",
"] 	c #E6E8EF",
"^ 	c #E2E7EE",
"/ 	c #CEE0EB",
"( 	c #D8E4ED",
"_ 	c #C8DEEA",
": 	c #CABEB7",
"< 	c #907442",
"[ 	c #8C6E40",
"} 	c #8C6D3F",
"| 	c #8E7143",
"1 	c #9A8252",
"2 	c #9D8756",
"3 	c #8F7344",
"4 	c #9D8857",
"5 	c #8C6D3B",
"6 	c #EDEBF0",
"7 	c #C7DEEA",
"8 	c #D9E4ED",
"9 	c #D4E2EC",
"0 	c #C6DDEA",
"a 	c #CCDFEB",
"b 	c #EAEAF0",
"c 	c #F3EDF1",
"d 	c #E1E7EE",
"e 	c #D3E2EC",
"f 	c #CEC3B9",
"g 	c #9C8652",
"h 	c #967D4D",
"i 	c #8F7244",
"j 	c #957E50",
"k 	c #5E6935",
"l 	c #83693E",
"m 	c #8E7142",
"n 	c #977E4C",
"o 	c #D2E1EC",
"p 	c #D2E2EC",
"q 	c #F0ECF1",
"r 	c #E3E7EE",
"s 	c #E3E8EF",
"t 	c #A7B4B2",
"u 	c #9C8552",
"v 	c #9C8555",
"w 	c #87693D",
"x 	c #50522E",
"y 	c #78A453",
"z 	c #728F44",
"A 	c #846C42",
"B 	c #9D8656",
"C 	c #927745",
"D 	c #CDC3B9",
"E 	c #D8DDEC",
"F 	c #7B8BA4",
"G 	c #8F703E",
"H 	c #8A6C3F",
"I 	c #474A29",
"J 	c #4F7C47",
"K 	c #8CBA5C",
"L 	c #9ECE63",
"M 	c #739044",
"N 	c #82663B",
"O 	c #8E7042",
"P 	c #8D6E3C",
"Q 	c #96A8AD",
"R 	c #DAE4EE",
"S 	c #EFECF0",
"T 	c #DFE6EE",
"U 	c #E5E8EF",
"V 	c #E3DBDC",
"W 	c #9F896E",
"X 	c #998251",
"Y 	c #978152",
"Z 	c #3F331D",
"` 	c #395535",
" .	c #7CAA57",
"..	c #66934F",
"+.	c #54733E",
"@.	c #9ECE64",
"#.	c #66823D",
"$.	c #8A7347",
"%.	c #99804D",
"&.	c #828797",
"*.	c #8ABEDF",
"=.	c #D9E3ED",
"-.	c #E0E7EE",
";.	c #C3DAEA",
">.	c #90C7E5",
",.	c #91C8E5",
"'.	c #91C7E5",
").	c #B2D3E8",
"!.	c #BED8EA",
"~.	c #B8D5E9",
"{.	c #83BEE6",
"].	c #9CC8E7",
"^.	c #E2E8EE",
"/.	c #F3EEF3",
"(.	c #CFC4BB",
"_.	c #957F4E",
":.	c #4C4127",
"<.	c #3A5935",
"[.	c #44693E",
"}.	c #51814A",
"|.	c #456A3E",
"1.	c #79A454",
"2.	c #648C4A",
"3.	c #7CA250",
"4.	c #3F351C",
"5.	c #957C4C",
"6.	c #998151",
"7.	c #967A43",
"8.	c #8C939C",
"9.	c #83BBE1",
"0.	c #7FABCF",
"a.	c #798BAA",
"b.	c #7A8CAB",
"c.	c #7C8EAC",
"d.	c #84A6C5",
"e.	c #83BFE7",
"f.	c #83BFE6",
"g.	c #84ACCD",
"h.	c #8496AF",
"i.	c #8497AF",
"j.	c #7DA4C7",
"k.	c #828089",
"l.	c #827F89",
"m.	c #8A898D",
"n.	c #909090",
"o.	c #8F8E8F",
"p.	c #7D90A8",
"q.	c #C2D4EC",
"r.	c #C9BDB6",
"s.	c #967E4C",
"t.	c #5F4C2C",
"u.	c #4B7642",
"v.	c #618B4B",
"w.	c #7CA957",
"x.	c #4E7946",
"y.	c #739F53",
"z.	c #7BA755",
"A.	c #2E4325",
"B.	c #8E7A4D",
"C.	c #988050",
"D.	c #907344",
"E.	c #9A824F",
"F.	c #868084",
"G.	c #85838B",
"H.	c #948A7A",
"I.	c #99804B",
"J.	c #8E6F3D",
"K.	c #8D6D3A",
"L.	c #8C7862",
"M.	c #8A8A8E",
"N.	c #8F8E90",
"O.	c #8A7A6C",
"P.	c #9B824D",
"Q.	c #937643",
"R.	c #8F703D",
"S.	c #958770",
"T.	c #909191",
"U.	c #85828A",
"V.	c #917546",
"W.	c #9C8655",
"X.	c #9B8554",
"Y.	c #8E734C",
"Z.	c #CCC4BF",
"`.	c #C1DCE9",
" +	c #F2EEF2",
".+	c #C5BAB5",
"++	c #8A6C3A",
"@+	c #5C4728",
"#+	c #4B7643",
"$+	c #53824A",
"%+	c #54834A",
"&+	c #64924F",
"*+	c #9DCD63",
"=+	c #94C05D",
"-+	c #616C36",
";+	c #958051",
">+	c #907445",
",+	c #94794A",
"'+	c #8D6F41",
")+	c #9B8453",
"!+	c #9D8655",
"~+	c #987F4F",
"{+	c #907345",
"]+	c #947A4A",
"^+	c #8E713F",
"/+	c #B3D8E7",
"(+	c #E6E9EF",
"_+	c #DEE5EF",
":+	c #90A5AE",
"<+	c #60502A",
"[+	c #3E6138",
"}+	c #41633B",
"|+	c #5F8D4D",
"1+	c #709E53",
"2+	c #79A554",
"3+	c #668D4B",
"4+	c #527642",
"5+	c #76A050",
"6+	c #6E5C39",
"7+	c #927748",
"8+	c #9A8352",
"9+	c #957B4B",
"0+	c #DADAE4",
"a+	c #565958",
"b+	c #4C7743",
"c+	c #53834A",
"d+	c #4F7A46",
"e+	c #426038",
"f+	c #547842",
"g+	c #4E7945",
"h+	c #648342",
"i+	c #55844B",
"j+	c #6C5934",
"k+	c #9E8857",
"l+	c #917547",
"m+	c #93794A",
"n+	c #8C6C3E",
"o+	c #937849",
"p+	c #9D8652",
"q+	c #AFB8B4",
"r+	c #E6E9F0",
"s+	c #EFEAEE",
"t+	c #97948F",
"u+	c #5C8A4C",
"v+	c #97C661",
"w+	c #55834A",
"x+	c #53814A",
"y+	c #64914F",
"z+	c #799F4C",
"A+	c #857548",
"B+	c #987F50",
"C+	c #9C8554",
"D+	c #998252",
"E+	c #977E4E",
"F+	c #9D8753",
"G+	c #8699AD",
"H+	c #D8DEED",
"I+	c #DBD7DA",
"J+	c #3B5E34",
"K+	c #54834B",
"L+	c #507441",
"M+	c #96C560",
"N+	c #89B75B",
"O+	c #507F49",
"P+	c #6D9A51",
"Q+	c #82B059",
"R+	c #7AA756",
"S+	c #6C9A52",
"T+	c #6B5734",
"U+	c #7B6037",
"V+	c #8D6F40",
"W+	c #907547",
"X+	c #DBD4D4",
"Y+	c #A3A2A2",
"Z+	c #334A2D",
"`+	c #95C15D",
" @	c #57854B",
".@	c #8BB95C",
"+@	c #66944F",
"@@	c #79A655",
"#@	c #65924F",
"$@	c #91BD5B",
"%@	c #739045",
"&@	c #83683D",
"*@	c #947A4B",
"=@	c #8D6E3F",
"-@	c #A59079",
";@	c #E4DDDE",
">@	c #E8E9EF",
",@	c #DAE2EA",
"'@	c #A29EA1",
")@	c #2E432B",
"!@	c #528049",
"~@	c #4E7B47",
"{@	c #88B459",
"]@	c #527D47",
"^@	c #507D47",
"/@	c #56854B",
"(@	c #476C3F",
"_@	c #283628",
":@	c #4E7845",
"<@	c #78A251",
"[@	c #5B6430",
"}@	c #8B6C3E",
"|@	c #CEC4BB",
"1@	c #DAE4ED",
"2@	c #F4EEF1",
"3@	c #D0E1EB",
"4@	c #CBDFEB",
"5@	c #9DB0BA",
"6@	c #8D979D",
"7@	c #30482C",
"8@	c #517E48",
"9@	c #52814A",
"0@	c #4B7443",
"a@	c #2C412D",
"b@	c #44683D",
"c@	c #40613A",
"d@	c #73984C",
"e@	c #1C2119",
"f@	c #50442C",
"g@	c #91784A",
"h@	c #EFECF1",
"i@	c #D1E1EC",
"j@	c #B4D8E8",
"k@	c #DEE5EE",
"l@	c #DFDBDE",
"m@	c #6C6C6E",
"n@	c #51744C",
"o@	c #507D48",
"p@	c #4E7A46",
"q@	c #64914E",
"r@	c #0E1909",
"s@	c #72623D",
"t@	c #DFDADE",
"u@	c #445A40",
"v@	c #52824A",
"w@	c #7BA956",
"x@	c #4C7644",
"y@	c #4C6E39",
"z@	c #7A6639",
"A@	c #8C6E3F",
"B@	c #987F4D",
"C@	c #947A48",
"D@	c #ADB3B9",
"E@	c #3C5F36",
"F@	c #3C5F35",
"G@	c #3B5D34",
"H@	c #334930",
"I@	c #4D7745",
"J@	c #4A7443",
"K@	c #40623A",
"L@	c #3F6039",
"M@	c #3F603A",
"N@	c #68914C",
"O@	c #705933",
"P@	c #998050",
"Q@	c #9B8451",
"R@	c #8D6F3D",
"S@	c #99814E",
"T@	c #8C6E3C",
"U@	c #CABFB7",
"V@	c #C8BDB1",
"W@	c #967D49",
"X@	c #6C9EC0",
"Y@	c #0B0D0B",
"Z@	c #0A1308",
"`@	c #4A7542",
" #	c #3D5C38",
".#	c #31462E",
"+#	c #486F41",
"@#	c #2E3D2A",
"##	c #486E40",
"$#	c #395635",
"%#	c #4D7945",
"&#	c #32482F",
"*#	c #344B30",
"=#	c #466B3E",
"-#	c #7CA956",
";#	c #85AD53",
">#	c #705934",
",#	c #967C4D",
"'#	c #937748",
")#	c #998150",
"!#	c #957B4C",
"~#	c #9B8550",
"{#	c #C8BBB5",
"]#	c #F1ECEF",
"^#	c #CCC1BA",
"/#	c #8C6D39",
"(#	c #85838A",
"_#	c #78777F",
":#	c #76737C",
"<#	c #5C605D",
"[#	c #83B059",
"}#	c #7AA856",
"|#	c #73A154",
"1#	c #84B159",
"2#	c #77A455",
"3#	c #4E7843",
"4#	c #2E2614",
"5#	c #8E784B",
"6#	c #CDC2BA",
"7#	c #F1EBEF",
"8#	c #C2B5AD",
"9#	c #7F653B",
"0#	c #445C33",
"a#	c #3A5D33",
"b#	c #497341",
"c#	c #54844B",
"d#	c #84B259",
"e#	c #6E9B52",
"f#	c #83B159",
"g#	c #6C9951",
"h#	c #6D9B52",
"i#	c #7BA14F",
"j#	c #4A5E35",
"k#	c #8D794D",
"l#	c #8F7240",
"m#	c #C7BCB1",
"n#	c #BEDBE9",
"o#	c #E4E8EF",
"p#	c #CADFEA",
"q#	c #E7E9EF",
"r#	c #8B6C3A",
"s#	c #876C41",
"t#	c #435931",
"u#	c #517F48",
"v#	c #45693E",
"w#	c #263D22",
"x#	c #3A5735",
"y#	c #689550",
"z#	c #528149",
"A#	c #4E6738",
"B#	c #446A3E",
"C#	c #4A6D3D",
"D#	c #483F23",
"E#	c #866C40",
"F#	c #C0BAB4",
"G#	c #C5DDEA",
"H#	c #CEC3BA",
"I#	c #907341",
"J#	c #6F5832",
"K#	c #292E22",
"L#	c #222C22",
"M#	c #151A15",
"N#	c #20371C",
"O#	c #4D7845",
"P#	c #3B5836",
"Q#	c #526E3C",
"R#	c #79A353",
"S#	c #4D7946",
"T#	c #4E6637",
"U#	c #3B5936",
"V#	c #617E3B",
"W#	c #5A6530",
"X#	c #988253",
"Y#	c #9E8753",
"Z#	c #90A6B1",
"`#	c #DBE2EF",
" $	c #7C6A42",
".$	c #1A2712",
"+$	c #51804A",
"@$	c #3C5D39",
"#$	c #709349",
"$$	c #4F7F49",
"%$	c #4E7E49",
"&$	c #7DAB57",
"*$	c #82AF57",
"=$	c #718141",
"-$	c #968253",
";$	c #9D8755",
">$	c #8B8175",
",$	c #D9D6DC",
"'$	c #C6BBB5",
")$	c #8B6B39",
"!$	c #625434",
"~$	c #4C7643",
"{$	c #55844A",
"]$	c #518049",
"^$	c #508049",
"/$	c #95C460",
"($	c #75A254",
"_$	c #30462E",
":$	c #374D2E",
"<$	c #736F3F",
"[$	c #967E4F",
"}$	c #9C8653",
"|$	c #C6BAAD",
"1$	c #DFE5EF",
"2$	c #91A5AD",
"3$	c #967C49",
"4$	c #80653B",
"5$	c #1C2515",
"6$	c #487041",
"7$	c #4F7945",
"8$	c #4C7744",
"9$	c #5F8D4E",
"0$	c #537E47",
"a$	c #2B3A29",
"b$	c #476E40",
"c$	c #455B34",
"d$	c #2E3A26",
"e$	c #574426",
"f$	c #D9DBE6",
"g$	c #848893",
"h$	c #927645",
"i$	c #947D4F",
"j$	c #435A32",
"k$	c #406639",
"l$	c #3F613A",
"m$	c #2A3829",
"n$	c #3D5F39",
"o$	c #3D5E39",
"p$	c #638545",
"q$	c #50713F",
"r$	c #85B45A",
"s$	c #80A74F",
"t$	c #7D6B43",
"u$	c #DFD7D4",
"v$	c #9B844B",
"w$	c #8D7043",
"x$	c #4A4E2D",
"y$	c #507B46",
"z$	c #89B358",
"A$	c #4A7544",
"B$	c #5C8B4D",
"C$	c #98C761",
"D$	c #89B054",
"E$	c #DFD7D5",
"F$	c #9B8551",
"G$	c #574425",
"H$	c #4A7442",
"I$	c #58864B",
"J$	c #5D8B4D",
"K$	c #80A64E",
"L$	c #7E6B3F",
"M$	c #937845",
"N$	c #A8B5B2",
"O$	c #F2EDF0",
"P$	c #C5B8B1",
"Q$	c #614F2E",
"R$	c #161816",
"S$	c #171B18",
"T$	c #82AF59",
"U$	c #85B35A",
"V$	c #6E5832",
"W$	c #C0DBE9",
"X$	c #D5CBC9",
"Y$	c #A18C65",
"Z$	c #97804F",
"`$	c #806537",
" %	c #3F351E",
".%	c #65934F",
"+%	c #2E432D",
"@%	c #4B602F",
"#%	c #83673B",
"$%	c #98804F",
"%%	c #9D856C",
"&%	c #B8D9E8",
"*%	c #F3EFF3",
"=%	c #D9D0CB",
"-%	c #CABFB4",
";%	c #8A6A37",
">%	c #8B6C33",
",%	c #B5A698",
"'%	c #867E7A",
")%	c #2D402A",
"!%	c #2E422D",
"~%	c #41643B",
"{%	c #507C46",
"]%	c #669450",
"^%	c #56844B",
"/%	c #33432B",
"(%	c #3A4C26",
"_%	c #8E7A4E",
":%	c #977F4C",
"<%	c #C9BDB7",
"[%	c #F4EFF3",
"}%	c #F1ECF0",
"|%	c #DCD4D3",
"1%	c #DBD3D2",
"2%	c #9E9A9C",
"3%	c #7AA655",
"4%	c #3E603A",
"5%	c #293728",
"6%	c #30442D",
"7%	c #40633B",
"8%	c #497343",
"9%	c #40623B",
"0%	c #43683D",
"a%	c #5F8446",
"b%	c #91BD5A",
"c%	c #6A6235",
"d%	c #8F713F",
"e%	c #A4AEAF",
"f%	c #E5E9F0",
"g%	c #959294",
"h%	c #2E422B",
"i%	c #8CBB5D",
"j%	c #273126",
"k%	c #2E3F2B",
"l%	c #334A30",
"m%	c #2D3A29",
"n%	c #32492F",
"o%	c #3A5836",
"p%	c #263026",
"q%	c #2D3E2B",
"r%	c #2C3B2A",
"s%	c #31472E",
"t%	c #466C3F",
"u%	c #71944A",
"v%	c #628D4C",
"w%	c #57864B",
"x%	c #95C15C",
"y%	c #625934",
"z%	c #917341",
"A%	c #8496AA",
"B%	c #D8DDED",
"C%	c #C9DEEA",
"D%	c #A3A0A2",
"E%	c #517F49",
"F%	c #7BA856",
"G%	c #8BB85C",
"H%	c #8BBA5C",
"I%	c #8DBC5D",
"J%	c #716C3E",
"K%	c #977F50",
"L%	c #907343",
"M%	c #9B8366",
"N%	c #E1D9DA",
"O%	c #9E9B9E",
"P%	c #314A2D",
"Q%	c #709D52",
"R%	c #618343",
"S%	c #604E2F",
"T%	c #C9C5C8",
"U%	c #1C2B1F",
"V%	c #73A053",
"W%	c #8FBD5D",
"X%	c #43693E",
"Y%	c #213020",
"Z%	c #79633B",
"`%	c #BFBBBE",
" &	c #3B4138",
".&	c #476D40",
"+&	c #232B23",
"@&	c #222B21",
"#&	c #696868",
"$&	c #1D3017",
"%&	c #284122",
"&&	c #9FCF64",
"*&	c #789E4C",
"=&	c #1E290F",
"-&	c #222B22",
";&	c #272C1F",
">&	c #76623C",
",&	c #161916",
"'&	c #807E80",
")&	c #B2AEB1",
"!&	c #3F6339",
"~&	c #6E9C52",
"{&	c #416739",
"]&	c #4F7F4A",
"^&	c #96C660",
"/&	c #42643A",
"(&	c #3D5F36",
"_&	c #527F48",
":&	c #78A353",
"<&	c #69924D",
"[&	c #41592E",
"}&	c #281E0E",
"|&	c #67502E",
"1&	c #685230",
"2&	c #715933",
"3&	c #9B824F",
"4&	c #99ADB0",
"5&	c #DDD8DC",
"6&	c #E7E2E6",
"7&	c #C7C3C6",
"8&	c #253523",
"9&	c #273226",
"0&	c #192218",
"a&	c #42673D",
"b&	c #43683E",
"c&	c #273E22",
"d&	c #4B6334",
"e&	c #233B1F",
"f&	c #2B402C",
"g&	c #92BE5C",
"h&	c #4C6436",
"i&	c #252724",
"j&	c #363636",
"k&	c #497442",
"l&	c #223021",
"m&	c #21281B",
"n&	c #8F7B4F",
"o&	c #8E6F3E",
"p&	c #838791",
"q&	c #D9DAE5",
"r&	c #D2D5DC",
"s&	c #ADAAAC",
"t&	c #585758",
"u&	c #575758",
"v&	c #3F3F3F",
"w&	c #242424",
"x&	c #4A4A4A",
"y&	c #222322",
"z&	c #273123",
"A&	c #242823",
"B&	c #232822",
"C&	c #0B0B0B",
"D&	c #080E0C",
"E&	c #192119",
"F&	c #0F1712",
"G&	c #090F0C",
"H&	c #030605",
"I&	c #1F281E",
"J&	c #151D15",
"K&	c #242524",
"L&	c #515151",
"M&	c #525252",
"N&	c #303030",
"O&	c #30352F",
"P&	c #4B4B4B",
"Q&	c #545352",
"R&	c #70614D",
"S&	c #938056",
"T&	c #987F4E",
"U&	c #BBAC96",
"V&	c #EBE4E6",
"W&	c #BBDAE8",
"X&	c #A5C3D0",
"Y&	c #9CAAB2",
"Z&	c #535353",
"`&	c #404040",
" *	c #4E4E4E",
".*	c #494949",
"+*	c #212223",
"@*	c #685434",
"#*	c #4A3D27",
"$*	c #5E4C2F",
"%*	c #695434",
"&*	c #4C3F28",
"**	c #141C17",
"=*	c #0A1613",
"-*	c #272626",
";*	c #4F4F4F",
">*	c #7E7054",
",*	c #8F7C55",
"'*	c #DDDBDF",
")*	c #6A6A6B",
"!*	c #3E3F3F",
"~*	c #745B35",
"{*	c #988152",
"]*	c #8F7648",
"^*	c #463C28",
"/*	c #735A34",
"(*	c #363739",
"_*	c #535352",
":*	c #595551",
"<*	c #866C45",
"[*	c #C8BCB6",
"}*	c #565656",
"|*	c #40321C",
"1*	c #6E5530",
"2*	c #917648",
"3*	c #866B40",
"4*	c #40351E",
"5*	c #745A34",
"6*	c #343331",
"7*	c #B9D9E8",
"8*	c #CFE0EB",
"9*	c #E0E6EE",
"0*	c #ABA8AA",
"a*	c #403F3F",
"b*	c #74614A",
"c*	c #746149",
"d*	c #7D6E53",
"e*	c #796740",
"f*	c #856F45",
"g*	c #8F7749",
"h*	c #72613C",
"i*	c #856F44",
"j*	c #90784A",
"k*	c #746245",
"l*	c #48433E",
"m*	c #928B85",
"n*	c #ECEBF0",
"o*	c #CADFEB",
"p*	c #DCE5ED",
"q*	c #ADA9AC",
"r*	c #525353",
"s*	c #323130",
"t*	c #745A33",
"u*	c #644D2B",
"v*	c #513E24",
"w*	c #453E38",
"x*	c #40311A",
"y*	c #513E22",
"z*	c #5E4A2E",
"A*	c #4B4C4C",
"B*	c #575656",
"C*	c #A09B9A",
"D*	c #EFE9ED",
"E*	c #898789",
"F*	c #6F6E6F",
"G*	c #333130",
"H*	c #735934",
"I*	c #1E1F20",
"J*	c #403F3E",
"K*	c #888789",
"L*	c #EDE9EE",
"M*	c #D9D5D8",
"N*	c #B9B5B8",
"O*	c #B9B6B9",
"P*	c #8F8D8F",
"Q*	c #3D3E40",
"R*	c #908D8F",
"S*	c #B2B3B7",
"T*	c #B7B5B8",
"U*	c #D1E1EB",
"V*	c #E9E4E8",
"W*	c #DEDADE",
"X*	c #BDB3AB",
"Y*	c #BCB3AA",
"Z*	c #DCD9DE",
"`*	c #B9CDD7",
" =	c #CBD9E3",
".=	c #DBE4ED",
"+=	c #C6DEEA",
"@=	c #F1ECF1",
"#=	c #DEE6EE",
"$=	c #D7E3ED",
"%=	c #C0DCE9",
"&=	c #8A6A38",
"*=	c #977F4F",
"                            . +   @ # $ % & * = - & ; > > ; - , ' #                   ) !     @         ",
"        ~ { ] !             ^ / ( _ # : < [ } | 1 2 3 4 4 = [ 5 : #                   6 7 8 8 7 )       ",
"        9 0 a b             c d e ) # f g h } i j k l 4 2 2 m n f #                     ! o p q         ",
"        ) r !                       s t u v } w x y z A 2 B - C D #                                     ",
"                                    E F G > H I J K L M N & O P Q R )   S ! ! ! +         S ! ! ! .     ",
"T T T T T U c                       V W X Y Z `  ...+.@.#.$.2 %.&.*.=.-.;.>.,.'.).-.T T -.!.>.'.'.~.-.T ",
"{.{.{.{.{.].^.                      /.(._.:.<.[.}.|.1.2.3.4.5.6.7.8.9.{.0.a.b.c.d.e.{.{.f.g.h.i.b.j.f.{.",
"k.l.m.n.o.p.q.{                     # r.s.t.u.v.w.x.y.z.A.B.C.D.O E.F.G.H.I.J.K.L.M.n.N.k.O.P.Q.R.S.T.U.",
"C.V.W.2 X.Y.Z.#           @ _ q `..  +.+++@+#+$+%+$+&+*+=+-+;+>+,+'+'+)+2 !+i ~+V.W.2 X.>+,+'+'+)+2 !+& ",
"{+m ]+W.6.^+r.#             T /+(+  _+:+<+[+}+|+1+%+2+3+4+5+6+{+{+'+} 7+8+V.} {+m ]+W.6.{+{+'+} 7+8+V.} ",
"2 8+& ,+9+g f #               c     0+a+b+c+d+e+f+g+h+z.i+#+j+2 k+l+m+1 & ,+O 2 8+& ,+9+2 k+l+m+1 & ,+'+",
"2 4 ,+n+o+p+q+r+                  s+t+b+$+u+v+w+x+$+y+*+v+..z+A+B+- C+D+m+k+3 W.4 ,+n+o+2 B+- C+D+m+k+> ",
"W.C.; E+> F+G+H+                  I+J+K+L+M+N+%+$+$+O+P+Q+R+S+z+T+U+D.1 V+C.i v C.; E+> 2 9+} D.1 V+C.& ",
"'+i > '+- )+W+X+                  s+Y+Z+`+N+ @$+$+ @.@O++@@.@@#@$@%@&@* *@O > '+i > '+- )+o+h & * *@O > ",
"> 4 4 = [ =@-@;@    c   c   @ >@c ,@'@)@w+%+$+!@~@{@]@^@!@/@(@_@:@<@[@}@| 1 2 3 4 4 = [ '+7+7+[ } | 1 2 ",
"> 4 2 2 m n |@/.  @ 1@2@3@) >@4@5@6@7@8@$+9@[.J 0@a@b@0@c@[.$+d@e@f@g@} i * 2 3 4 2 2 m C.4 2 h } i * 2 ",
"; = 2 B - C D #   h@i@j@k@) l@m@n@#+o@$+$+ .v.$+$+p@$+K+p@x.$+q@r@s@v } } & D.; = 2 B - ,+2 2 v } } & {+",
"O - '+& O P Q R )   q + ) t@u@$+$+$+^@!@#@ .$+$+$+$+v@w@#@$+$+$+x@y@z@[ *@o+A@O - '+& O O '+& > [ *@o+} ",
"u B@5 C@u %.&.*.=.T T T T D@E@}+F@G@H@I@[.J@K@J L@o@$+v@c+$+K+[.M@N@z+O@)+* & 2 6.- h 2 P@O 1 Q@R@, S@T@",
"D D U@$ V@W@7.8.9.{.{.{.{.{.X@Y@Z@`@ #.#+#@###!@I@$#%#&#*#%#=#d+#@-#+@;#>#& } ,#k+m+'#5.)#!#~#V@{#U@: {#",
"# # # # ]#^#/#E.F.(#n.n.U._#:#<#b+$+$+!@ @[#&+$+$+$+#@!@x+&+}#|#$+1#2#3#4#5#O ; V.5.W.C.D./#6#]## # # # ",
".   h@)   7#8#5 '+)+2 !+9#0#a#b#c#%+9@ .d#e#9@|+e#$+w@9@%+f#g#w@ .h#i#j#k#!+i ~+V.W.2 X.l#m#7#          ",
"n#o#p#q#  # r.r#} 7+8+s#t#u#$+v#w#x#9@#@#@9@x+y#@.&+v@$+z#/@f#q@A#B#%#C#D#E#}@{+m ]+W.6.^+F#h@          ",
"6 G#^ c   # H#I#m+1 & ,+J#K#L#M#N#O#&#*#%#|.P#Q#R#x@S#|.T#U#(@x.z#9@#@&+v+V#W#X#8+& ,+9+Y#Z#`#          ",
"  c       # : 5 C+D+m+k+3  $.$J+^@+$K+K+$+c+%+o@@$#$d@$$ .i+9@w@%+9@ .w.%$&$*$=$-$,+n+o+;$>$,$          ",
"           +'$)$D.1 V+C.i !$~$$+{$.@]$$+$+$+$+$+^$/$($w.9@$+v@#@$+z#$+#@[._$:$<$[$; E+> }$|$s+          ",
"          1$2$3$& * *@O > 4$5$H@6$7$8$!@I@^@$+$+$+i+$+ .#@$+9$0$p@a$b$x.c$d$e$'+i > '+- , ' #           ",
"          f$g$h$[ } | i$s@j$k$c#[.c@c@l$m$0@[.n$c@K@J o$J K@p$q$$+0@K@9@r$s$t$3 4 4 = [ 5 : #           ",
"          u$v$2 h } w$x$#+!@$+$+$+$+$+y$p@c+y$z$A$I@!@8$!@I@x@!@{$%+%+{$B$C$D$>#4 2 2 m n H##           ",
"          E$F$2 v } G$H$I@O#$+$+$+I$J$/$i+$+{$M+^$$+$+v@&+$+$+i+.@R+...@]$ @C$K$L$2 B - M$N$s   )   )   ",
"          O$P$R@> [ *@Q$R$S$[.c+$+J$d#Q+%+9@&$v+^$$+$++$C$-#9@$+^$e#T$$$9@$+J$U$z+V$& O J.F E . W$6 7 @ ",
"          # X$Y$Q@> )+Z$`$ %.#c+i+/$Q+ @$+v@.%#@v@$+x.[.+@/$9@$+$+J$C$M+}#9@O#+%@%#%h 2 $%%%V   >@&%d   ",
"            *%=%-%;%>%,%'%)%!%~%p@{%%+$+$+$+$+$+$+$+$+x+$+]%w@v@$+$+i+^%%+x+/%(%_%m+'#5.:%<%[%    {     ",
"              # }%|%1%2%7@o@3%4%5%6%0@^@~%0@$+K+c#|.|.c+$+7%8%K+$+0@^@9%8%0%a%b%c%5.W.C.d%e%f%          ",
"    h@)   S         g%h%o@i%+@J I@p@}+6%j%k%g+*#l%m%n%c#o%p%q%*#g+r%s%t%u%v%w%N+x%y%2 X.z%A%B%          ",
"  c i@1@T C%c   s+D%h%E%}#M+i+$+v@$+x+z#q@F%9@z#O+G%%+$+x+z#z#z#$+z#z#$+9@H%+@9@I%x%J%K%L%M%N%          ",
"    { i@4@c     O%P%o@w@^$^$$+^$w@%+$+$+v@9@$+$+$+]$$+$+$+v@9@$+$+Q%J$]$c+$+w@9@9@Q+R%S%g |@/.          ",
"      c c       T%U%{@+@!@z#!@F%V%$+$+$+$+%+$+$+$+$+$+%+$+.% .v@$+J$W%I%X%&#]$z#z#O#Y%Z%u D #           ",
"                  `% &.&+&@&#&$&%&x+$+$+ @f##@v@$+$+v@w@V%.%d# @$+$+w%&&*&=&-&L#L#;&>&> u '  +          ",
"                    `%,&'&)&'@!&t%|.K+9@f#~&c# .v@{&c+]&^&w+~&f#/&(&_&:&<&[&}&|&1&2&'+- 3&4&_+          ",
"              c       5&6&}%7&8&9&0&a&.@..b&c&d&k$e&s%f&g&w+0%h&i&j&h%k&l&m&n&3 4 4 = [ o&p&q&          ",
"            c e S 2@d r&s&t&u&v&w&x&y&z&A&B&C&D&E&F&G&H&z&I&J&K&L&M&N&O&v&P&Q&R&S&2 2 m T&U&V&          ",
"              >@W&X&Y&M&M&M&M&M&Z&M&Z&`& *.*+*@*#*$*%*&***=*-*;*M&M&M&`&Z&M&M&M&M&>*,*- C H##         ) ",
"                '*)*M&M&M&M&M&M&M&M&M&M&L&!*~*i ;+{*8+]*^*/*(*_*L&M&M&M&M&M&M&M&M&M&:*<*5 [*#   ] 4@6 W&",
"S U c   c 6 >@  }*M&M&M&M&M&M&M&M&M&M&P&|*1*i 2 2 2 2 2 2*3*4*5*6*Z&M&M&M&M&M&M&M&M&M&_*Y$X$#     ~ 7*! ",
"6 4@o#c 8*a 9*  0*M&M&M&M&M&M&M&M&M&M&a*b*c*d*e*f*g*h*i*,#j*k*l*M&M&M&M&M&M&M&M&M&M&M&m*=%*%      c {   ",
"  n*o*W&p*o#c   s+q*t&M&M&M&M&M&M&M&M&M&M&r*s*t*u*v*.*w*x*y*z*A*M&M&M&M&M&M&M&M&M&B*C*D*#               ",
"    + !           }%s+E*F*M&M&M&M&M&M&M&M&Z&G*H*I*P&M&M&L&P&J*M&M&M&M&M&M&M&M&F*K*L*}%.                 ",
"            b . ) q#    M*N*O*P*M&M&M&M&M&M&M&Q*Z&M&M&M&M&M&M&M&M&M&M&M&R*S*T*M*T 3@r `.                ",
"            ~ 8*o U*c         V*W*W*l@X*_*M&M&M&M&M&M&M&M&M&M&Q&Y*l@Z*`* =p#n*  c .=+=@=      ( c 2@#=6 ",
"            c 9*1@c                 # : 5 C+D+m+k+3 W.4 ,+n+o+u D #   + $=b       c c         1@%=W$3@. ",
"                                    # {#&=3 D+; P@3 W.C.; *=> u D #                           ) >@q#S   "};
